<?xml version="1.0" encoding="utf-8"?>
<!-- Generator: Adobe Illustrator 24.3.0, SVG Export Plug-In . SVG Version: 6.00 Build 0)  -->
<svg version="1.1" id="Layer_1" xmlns="http://www.w3.org/2000/svg" xmlns:xlink="http://www.w3.org/1999/xlink" x="0px" y="0px"
	 viewBox="0 0 900 900" style="enable-background:new 0 0 900 900;" xml:space="preserve">
<style type="text/css">
	.st0{opacity:0.7;}
	.st1{fill:#746F8B;}
	.st2{fill:#F7E5CB;}
	.st3{fill:#C5423B;}
	.st4{fill:#DE584C;}
	.st5{fill:#FFFFFF;}
	.st6{opacity:0.7;fill-rule:evenodd;clip-rule:evenodd;fill:#746F8B;}
	.st7{fill-rule:evenodd;clip-rule:evenodd;fill:#F2D131;}
	.st8{fill-rule:evenodd;clip-rule:evenodd;fill:#D770A9;}
	.st9{fill-rule:evenodd;clip-rule:evenodd;fill:#6F7AB4;}
	.st10{fill-rule:evenodd;clip-rule:evenodd;fill:#CEE86A;}
	.st11{fill-rule:evenodd;clip-rule:evenodd;fill:#A3BBEA;}
	.st12{fill-rule:evenodd;clip-rule:evenodd;fill:#F9ED6A;}
	.st13{fill-rule:evenodd;clip-rule:evenodd;fill:#E8E8E8;}
	.st14{fill-rule:evenodd;clip-rule:evenodd;fill:#494B4D;}
	.st15{fill-rule:evenodd;clip-rule:evenodd;fill:#B2B2B2;}
	.st16{fill-rule:evenodd;clip-rule:evenodd;fill:#888888;}
	.st17{fill-rule:evenodd;clip-rule:evenodd;fill:#FFFFFF;}
	.st18{fill-rule:evenodd;clip-rule:evenodd;fill:#BFBFBF;}
	.st19{fill-rule:evenodd;clip-rule:evenodd;fill:none;stroke:#4E4844;stroke-width:1.72;stroke-miterlimit:10;}
	.st20{opacity:0.7;fill:#746F8B;}
	.st21{opacity:0.42;fill:#565660;}
	.st22{fill:#C93D49;}
	.st23{fill:#952736;}
	.st24{fill:#536F5B;}
	.st25{fill:#3B3D44;}
	.st26{fill:#E3ECED;}
	.st27{opacity:0.71;}
	.st28{fill:none;stroke:#2B2D31;stroke-width:1.8163;stroke-linecap:round;stroke-linejoin:round;stroke-miterlimit:10;}
	.st29{fill:#FFFFFA;}
	.st30{fill:#DB2B72;}
	.st31{fill:#61AAEB;}
	.st32{fill:#E17457;}
	.st33{fill:#AAD957;}
	.st34{opacity:0.85;fill:#5D5D5D;}
	.st35{fill:#CF6290;}
	.st36{fill:#6AB4CB;}
	.st37{fill:#F1DAAC;}
	.st38{fill:#4C5256;}
	.st39{fill:#B2BDD3;}
	.st40{fill:none;stroke:#8FCFD9;stroke-width:2.3258;stroke-linecap:round;stroke-miterlimit:10;}
	.st41{fill:none;stroke:#E6C4D3;stroke-width:2.3258;stroke-linecap:round;stroke-miterlimit:10;}
	.st42{fill:#548EB1;}
	.st43{fill:#97A3BC;}
	.st44{fill:#C8D7F5;}
	.st45{fill-rule:evenodd;clip-rule:evenodd;fill:#EBAF87;}
	
		.st46{fill-rule:evenodd;clip-rule:evenodd;fill:none;stroke:#EBAF87;stroke-width:14.9642;stroke-linecap:round;stroke-miterlimit:10;}
	
		.st47{fill-rule:evenodd;clip-rule:evenodd;fill:none;stroke:#EBAF87;stroke-width:13.3072;stroke-linecap:round;stroke-miterlimit:10;}
	
		.st48{fill-rule:evenodd;clip-rule:evenodd;fill:none;stroke:#EBAF87;stroke-width:18.4461;stroke-linecap:round;stroke-linejoin:round;stroke-miterlimit:10;}
	.st49{fill:#C7906F;}
	.st50{fill:#C8CFDE;}
	.st51{fill:#313641;}
	.st52{fill:#4E565B;}
	.st53{fill-rule:evenodd;clip-rule:evenodd;fill:#30323C;}
	.st54{fill-rule:evenodd;clip-rule:evenodd;fill:#918E8E;}
	.st55{fill-rule:evenodd;clip-rule:evenodd;fill:#E4AF55;}
	
		.st56{fill-rule:evenodd;clip-rule:evenodd;fill:none;stroke:#FFFFFF;stroke-width:4.7393;stroke-linecap:round;stroke-linejoin:round;stroke-miterlimit:3;}
	
		.st57{fill-rule:evenodd;clip-rule:evenodd;fill:none;stroke:#333333;stroke-width:4.7393;stroke-linecap:round;stroke-linejoin:round;stroke-miterlimit:3;}
	.st58{fill-rule:evenodd;clip-rule:evenodd;fill:#484A5B;}
	.st59{opacity:0.8;fill-rule:evenodd;clip-rule:evenodd;fill:#4C6375;}
	.st60{fill-rule:evenodd;clip-rule:evenodd;fill:#E1E4E6;}
	.st61{fill-rule:evenodd;clip-rule:evenodd;fill:#E1E4E6;stroke:#5B5B5B;stroke-width:2;stroke-miterlimit:10;}
	.st62{fill-rule:evenodd;clip-rule:evenodd;fill:#F1DAAC;}
	.st63{fill-rule:evenodd;clip-rule:evenodd;fill:#E0C28E;}
	.st64{fill-rule:evenodd;clip-rule:evenodd;fill:#C7CCD4;}
	.st65{fill:#FFFFFF;stroke:#494444;stroke-width:7.6027;stroke-linecap:round;stroke-miterlimit:10;}
	.st66{fill:#494444;}
	.st67{fill:#78CACA;}
	.st68{fill:none;stroke:#AAFFFF;stroke-width:2.5634;stroke-linecap:round;stroke-miterlimit:10;}
	.st69{fill:none;stroke:#5E5E66;stroke-width:2.4158;stroke-linecap:round;stroke-miterlimit:10;}
	.st70{fill:#61A5AF;}
	.st71{fill:none;stroke:#494444;stroke-width:2.4158;stroke-linecap:round;stroke-miterlimit:10;}
	.st72{fill:none;stroke:#9BEDF0;stroke-width:2.4158;stroke-linecap:round;stroke-miterlimit:10;}
	
		.st73{fill-rule:evenodd;clip-rule:evenodd;fill:none;stroke:#CCD1D4;stroke-width:7.0644;stroke-linecap:round;stroke-linejoin:round;stroke-miterlimit:10;}
	.st74{opacity:0.32;fill:#E0DFDC;stroke:#CCD1D4;stroke-miterlimit:10;}
	.st75{fill:none;stroke:#CCD1D4;stroke-width:5.046;stroke-miterlimit:10;}
	.st76{fill:#CCD1D4;}
	
		.st77{fill-rule:evenodd;clip-rule:evenodd;fill:none;stroke:#2A2A28;stroke-width:7.0644;stroke-linecap:round;stroke-linejoin:round;stroke-miterlimit:10;}
	.st78{opacity:0.32;fill:#E0DFDC;}
	.st79{fill:none;stroke:#41403D;stroke-width:5.046;stroke-miterlimit:10;}
	.st80{fill:#41403D;}
	.st81{opacity:0.57;fill:#FFFFFF;}
	.st82{fill:#E2CA31;stroke:#FFFFFF;stroke-width:3.2448;stroke-miterlimit:10;}
	.st83{fill:#83DE68;stroke:#FFFFFF;stroke-width:3.2448;stroke-miterlimit:10;}
	.st84{fill:#6CB2DE;stroke:#FFFFFF;stroke-width:3.2448;stroke-miterlimit:10;}
	.st85{fill:#C64D33;stroke:#FFFFFF;stroke-width:3.2448;stroke-miterlimit:10;}
	.st86{fill:#8B2ADF;stroke:#FFFFFF;stroke-width:3.2448;stroke-miterlimit:10;}
	.st87{opacity:0.36;}
	.st88{opacity:0.36;fill:#746F8B;}
	.st89{fill:#5DA358;}
	.st90{fill:#91302B;}
	.st91{fill:#2E333A;stroke:#464C59;stroke-width:3.6959;stroke-miterlimit:10;}
	.st92{opacity:0.31;fill:#474E5B;}
	.st93{fill:#94E39D;}
	.st94{fill:#49744D;}
	.st95{fill:#EBAF31;}
	.st96{fill:#CB638F;}
	.st97{fill:#F1CC8A;}
	.st98{fill:#E383B3;}
	.st99{fill:#57942D;}
	.st100{fill:#F5DEA2;}
	.st101{fill:#CC4040;}
	.st102{fill:#474E5B;}
</style>
<g class="st0">
	<path class="st1" d="M461.7,224.59l-0.43,1.32c-0.18,0.54-0.37,1.05-0.57,1.54c-3.65,8.66-7.11,15.35-15.72,12.54l-56.67-18.49
		c-8.61-2.81-7.47-10.26-5.29-19.41c0.11-0.52,0.26-1.05,0.42-1.57l0.43-1.32c3.14-9.63,7.14-16.86,16.24-13.89l56.67,18.49
		C465.89,206.76,464.84,214.95,461.7,224.59z"/>
</g>
<g>
	<g>
		<path class="st2" d="M448.45,226.35l-0.43,1.32c-0.18,0.54-0.37,1.05-0.57,1.54c-3.65,8.66-7.11,15.35-15.72,12.54l-56.67-18.49
			c-8.61-2.81-7.47-10.26-5.29-19.41c0.11-0.52,0.26-1.05,0.42-1.57l0.43-1.32c3.14-9.63,7.14-16.86,16.24-13.89l56.67,18.49
			C452.63,208.53,451.59,216.72,448.45,226.35z"/>
	</g>
	
		<rect x="390.22" y="192.19" transform="matrix(0.3101 -0.9507 0.9507 0.3101 78.6102 537.0207)" class="st3" width="38.21" height="44.32"/>
	
		<rect x="390.21" y="194.78" transform="matrix(0.3101 -0.9507 0.9507 0.3101 78.6071 537.0095)" class="st4" width="38.21" height="39.12"/>
	<path class="st5" d="M405.96,203.61c0.96-2.66-2.98-3.94-3.94-1.28c-2.11,5.86-3.94,11.79-5.5,17.81c-0.7,2.72,3.23,4.02,3.94,1.28
		C402.02,215.39,403.85,209.46,405.96,203.61z"/>
	<path class="st5" d="M409.69,220.74c0.66-3.91,1.72-7.72,3.09-11.45c0.97-2.65-2.97-3.93-3.94-1.28c-1.51,4.11-2.58,8.3-3.31,12.61
		C405.07,223.38,409.23,223.5,409.69,220.74z"/>
</g>
<g>
	<polygon class="st6" points="317,142.37 324.78,110.43 323.94,110.23 325.08,106.33 317.55,104.13 319.1,94.96 248.71,83.08 
		245.26,103.48 241.99,102.93 240.3,112.97 232.15,111.6 220.27,181.99 261.26,188.91 281.4,205.55 293.85,190.49 300.82,191.67 
		302.86,179.59 303.57,178.74 307.88,179.79 310.05,170.89 326.88,150.53 	"/>
	<g>
		
			<rect x="236.24" y="74.12" transform="matrix(0.9861 0.1664 -0.1664 0.9861 22.0673 -43.7257)" class="st7" width="71.39" height="71.39"/>
		
			<rect x="239.09" y="80.47" transform="matrix(0.9598 0.2807 -0.2807 0.9598 43.6611 -72.4703)" class="st8" width="71.39" height="71.39"/>
		
			<rect x="239.94" y="86.56" transform="matrix(0.9716 0.2367 -0.2367 0.9716 36.7748 -61.7757)" class="st9" width="71.39" height="71.39"/>
		
			<rect x="229.53" y="93.96" transform="matrix(0.9861 0.1664 -0.1664 0.9861 25.276 -42.3314)" class="st10" width="71.39" height="71.39"/>
		
			<rect x="219.69" y="102.63" transform="matrix(0.9861 0.1664 -0.1664 0.9861 26.5817 -40.5733)" class="st11" width="71.39" height="71.39"/>
		
			<rect x="229.85" y="100.43" transform="matrix(0.9861 0.1664 -0.1664 0.9861 26.357 -42.2937)" class="st8" width="71.39" height="71.39"/>
		
			<rect x="234.91" y="105.2" transform="matrix(0.7707 0.6372 -0.6372 0.7707 151.8105 -140.1167)" class="st12" width="71.39" height="71.39"/>
	</g>
</g>
<g>
	<path class="st6" d="M664.95,382.39c0.05-6.43-5.86-11.69-13.2-11.75l-331.63-2.67c-7.34-0.06-13.34,5.11-13.39,11.54l-2.6,322.31
		c-0.05,6.43,5.86,11.69,13.2,11.75l331.63,2.67c7.34,0.06,13.34-5.11,13.39-11.54L664.95,382.39z"/>
	<path class="st13" d="M640.46,503.77c0.04-4.4-3.99-8-8.99-8.04l-355.41-2.86c-5-0.04-9.08,3.5-9.12,7.9l-1.56,193.75
		c-0.04,4.4,3.99,8,8.99,8.04l355.41,2.86c5,0.04,9.08-3.5,9.12-7.9L640.46,503.77z"/>
	<path class="st14" d="M302.74,642.62l299.65,2.41c6.77,0.05,12.3-5.39,12.35-12.15l0.86-107.01c0.05-6.77-5.39-12.3-12.15-12.35
		l-299.65-2.41c-6.77-0.05-12.3,5.39-12.35,12.15l-0.86,107.01C290.53,637.04,295.97,642.57,302.74,642.62z"/>
	<path class="st15" d="M421.62,694.41l61.41,0.49c5.14,0.04,9.35-4.1,9.39-9.24l0.21-25.48c0.04-5.14-4.1-9.35-9.24-9.39
		l-61.41-0.49c-5.14-0.04-9.35,4.1-9.39,9.24l-0.21,25.48C412.34,690.17,416.48,694.37,421.62,694.41z"/>
	<g>
		<g>
			<path class="st16" d="M584.39,535.83c-0.01,1.65,1.33,3.01,2.98,3.02l15.6,0.13c1.65,0.01,3.01-1.33,3.02-2.98l0.07-9.25
				c0.01-1.65-1.33-3.01-2.98-3.02l-15.6-0.13c-1.65-0.01-3.01,1.33-3.02,2.98L584.39,535.83z"/>
		</g>
		<g>
			<path class="st16" d="M527.7,535.37c-0.01,1.65,1.33,3.01,2.98,3.02l15.6,0.13c1.65,0.01,3.01-1.33,3.02-2.98l0.07-9.25
				c0.01-1.65-1.33-3.01-2.98-3.02l-15.6-0.13c-1.65-0.01-3.01,1.33-3.02,2.98L527.7,535.37z"/>
		</g>
		<g>
			<path class="st16" d="M499.35,535.14c-0.01,1.65,1.33,3.01,2.98,3.02l15.6,0.13c1.65,0.01,3.01-1.33,3.02-2.98l0.07-9.25
				c0.01-1.65-1.33-3.01-2.98-3.02l-15.6-0.13c-1.65-0.01-3.01,1.33-3.02,2.98L499.35,535.14z"/>
		</g>
		<g>
			<path class="st16" d="M471,534.91c-0.01,1.65,1.33,3.01,2.98,3.02l15.6,0.13c1.65,0.01,3.01-1.33,3.02-2.98l0.07-9.25
				c0.01-1.65-1.33-3.01-2.98-3.02l-15.6-0.13c-1.65-0.01-3.01,1.33-3.02,2.98L471,534.91z"/>
		</g>
		<g>
			<path class="st16" d="M414.31,534.46c-0.01,1.65,1.33,3.01,2.98,3.02l15.6,0.13c1.65,0.01,3.01-1.33,3.02-2.98l0.07-9.25
				c0.01-1.65-1.33-3.01-2.98-3.02l-15.6-0.13c-1.65-0.01-3.01,1.33-3.02,2.98L414.31,534.46z"/>
		</g>
		<g>
			<path class="st16" d="M385.96,534.23c-0.01,1.65,1.33,3.01,2.98,3.02l15.6,0.13c1.65,0.01,3.01-1.33,3.02-2.98l0.07-9.25
				c0.01-1.65-1.33-3.01-2.98-3.02l-15.6-0.13c-1.65-0.01-3.01,1.33-3.02,2.98L385.96,534.23z"/>
		</g>
		<g>
			<path class="st16" d="M357.61,534c-0.01,1.65,1.33,3.01,2.98,3.02l15.6,0.13c1.65,0.01,3.01-1.33,3.02-2.98l0.07-9.25
				c0.01-1.65-1.33-3.01-2.98-3.02l-15.6-0.13c-1.65-0.01-3.01,1.33-3.02,2.98L357.61,534z"/>
		</g>
		<g>
			<path class="st16" d="M300.92,533.55c-0.01,1.65,1.33,3.01,2.98,3.02l15.6,0.13c1.65,0.01,3.01-1.33,3.02-2.98l0.07-9.25
				c0.01-1.65-1.33-3.01-2.98-3.02l-15.6-0.13c-1.65-0.01-3.01,1.33-3.02,2.98L300.92,533.55z"/>
		</g>
	</g>
	<path class="st17" d="M277.52,493.77l352.79,0.72c7.01,0.01,13.92-6.1,16.79-13.86l24.15-62.56c3.69-9.98,0.05-18.33-8.23-18.35
		l-416.68-0.85c-8.28-0.02-12.05,8.32-8.52,18.32L262,479.82C264.75,487.59,270.51,493.75,277.52,493.77z"/>
	<path class="st18" d="M277.54,493.77l352.88,0.72c7.01,0.01,10.74,0.85,13.54-6.07l26.66-61.85c3.58-8.84-0.13-16.23-8.38-16.25
		l-415.16-0.85c-8.25-0.02-12.07,7.36-8.64,16.21l25.76,61.89C266.89,494.51,270.52,493.75,277.54,493.77z"/>
	<path class="st17" d="M287.39,484.98l334.21,2.69c5.5,0.04,12.72-5.77,16.16-13.15l15.41-33.08c4.19-9.01,2.53-16.7-3.86-16.75
		l-388.53-3.13c-6.39-0.05-8.19,7.61-4.15,16.69l14.84,33.33C274.78,479.01,281.89,484.94,287.39,484.98z"/>
	<g>
		<g>
			<path class="st16" d="M584.24,554.3c-0.01,1.65,1.33,3.01,2.98,3.02l15.6,0.13c1.65,0.01,3.01-1.33,3.02-2.98l0.07-9.25
				c0.01-1.65-1.33-3.01-2.98-3.02l-15.6-0.13c-1.65-0.01-3.01,1.33-3.02,2.98L584.24,554.3z"/>
		</g>
		<g>
			<path class="st16" d="M555.89,554.08c-0.01,1.65,1.33,3.01,2.98,3.02l15.6,0.13c1.65,0.01,3.01-1.33,3.02-2.98l0.07-9.25
				c0.01-1.65-1.33-3.01-2.98-3.02l-15.6-0.13c-1.65-0.01-3.01,1.33-3.02,2.98L555.89,554.08z"/>
		</g>
		<g>
			<path class="st16" d="M527.55,553.85c-0.01,1.65,1.33,3.01,2.98,3.02l15.6,0.13c1.65,0.01,3.01-1.33,3.02-2.98l0.07-9.25
				c0.01-1.65-1.33-3.01-2.98-3.02l-15.6-0.13c-1.65-0.01-3.01,1.33-3.02,2.98L527.55,553.85z"/>
		</g>
		<g>
			<path class="st16" d="M499.2,553.62c-0.01,1.65,1.33,3.01,2.98,3.02l15.6,0.13c1.65,0.01,3.01-1.33,3.02-2.98l0.07-9.25
				c0.01-1.65-1.33-3.01-2.98-3.02l-15.6-0.13c-1.65-0.01-3.01,1.33-3.02,2.98L499.2,553.62z"/>
		</g>
		<g>
			<path class="st16" d="M470.85,553.39c-0.01,1.65,1.33,3.01,2.98,3.02l15.6,0.13c1.65,0.01,3.01-1.33,3.02-2.98l0.07-9.25
				c0.01-1.65-1.33-3.01-2.98-3.02l-15.6-0.13c-1.65-0.01-3.01,1.33-3.02,2.98L470.85,553.39z"/>
		</g>
		<g>
			<path class="st16" d="M442.5,553.16c-0.01,1.65,1.33,3.01,2.98,3.02l15.6,0.13c1.65,0.01,3.01-1.33,3.02-2.98l0.07-9.25
				c0.01-1.65-1.33-3.01-2.98-3.02l-15.6-0.13c-1.65-0.01-3.01,1.33-3.02,2.98L442.5,553.16z"/>
		</g>
		<g>
			<path class="st16" d="M414.16,552.93c-0.01,1.65,1.33,3.01,2.98,3.02l15.6,0.13c1.65,0.01,3.01-1.33,3.02-2.98l0.07-9.25
				c0.01-1.65-1.33-3.01-2.98-3.02l-15.6-0.13c-1.65-0.01-3.01,1.33-3.02,2.98L414.16,552.93z"/>
		</g>
		<g>
			<path class="st16" d="M385.81,552.71c-0.01,1.65,1.33,3.01,2.98,3.02l15.6,0.13c1.65,0.01,3.01-1.33,3.02-2.98l0.07-9.25
				c0.01-1.65-1.33-3.01-2.98-3.02l-15.6-0.13c-1.65-0.01-3.01,1.33-3.02,2.98L385.81,552.71z"/>
		</g>
		<g>
			<path class="st16" d="M357.46,552.48c-0.01,1.65,1.33,3.01,2.98,3.02l15.6,0.13c1.65,0.01,3.01-1.33,3.02-2.98l0.07-9.25
				c0.01-1.65-1.33-3.01-2.98-3.02l-15.6-0.13c-1.65-0.01-3.01,1.33-3.02,2.98L357.46,552.48z"/>
		</g>
		<g>
			<path class="st16" d="M329.11,552.25c-0.01,1.65,1.33,3.01,2.98,3.02l15.6,0.13c1.65,0.01,3.01-1.33,3.02-2.98l0.07-9.25
				c0.01-1.65-1.33-3.01-2.98-3.02l-15.6-0.13c-1.65-0.01-3.01,1.33-3.02,2.98L329.11,552.25z"/>
		</g>
		<g>
			<path class="st16" d="M300.77,552.02c-0.01,1.65,1.33,3.01,2.98,3.02l15.6,0.13c1.65,0.01,3.01-1.33,3.02-2.98l0.07-9.25
				c0.01-1.65-1.33-3.01-2.98-3.02l-15.6-0.13c-1.65-0.01-3.01,1.33-3.02,2.98L300.77,552.02z"/>
		</g>
	</g>
	<g>
		<g>
			<path class="st16" d="M583.93,612.5c-0.01,1.65,1.33,3.01,2.98,3.02l15.6,0.13c1.65,0.01,3.01-1.33,3.02-2.98l0.07-9.25
				c0.01-1.65-1.33-3.01-2.98-3.02l-15.6-0.13c-1.65-0.01-3.01,1.33-3.02,2.98L583.93,612.5z"/>
		</g>
		<g>
			<path class="st16" d="M555.58,612.27c-0.01,1.65,1.33,3.01,2.98,3.02l15.6,0.13c1.65,0.01,3.01-1.33,3.02-2.98l0.07-9.25
				c0.01-1.65-1.33-3.01-2.98-3.02l-15.6-0.13c-1.65-0.01-3.01,1.33-3.02,2.98L555.58,612.27z"/>
		</g>
		<g>
			<path class="st16" d="M527.24,612.04c-0.01,1.65,1.33,3.01,2.98,3.02l15.6,0.13c1.65,0.01,3.01-1.33,3.02-2.98l0.07-9.25
				c0.01-1.65-1.33-3.01-2.98-3.02l-15.6-0.13c-1.65-0.01-3.01,1.33-3.02,2.98L527.24,612.04z"/>
		</g>
		<g>
			<path class="st16" d="M498.89,611.81c-0.01,1.65,1.33,3.01,2.98,3.02l15.6,0.13c1.65,0.01,3.01-1.33,3.02-2.98l0.07-9.25
				c0.01-1.65-1.33-3.01-2.98-3.02l-15.6-0.13c-1.65-0.01-3.01,1.33-3.02,2.98L498.89,611.81z"/>
		</g>
		<g>
			<path class="st16" d="M470.54,611.59c-0.01,1.65,1.33,3.01,2.98,3.02l15.6,0.13c1.65,0.01,3.01-1.33,3.02-2.98l0.07-9.25
				c0.01-1.65-1.33-3.01-2.98-3.02l-15.6-0.13c-1.65-0.01-3.01,1.33-3.02,2.98L470.54,611.59z"/>
		</g>
		<g>
			<path class="st16" d="M442.2,611.36c-0.01,1.65,1.33,3.01,2.98,3.02l15.6,0.13c1.65,0.01,3.01-1.33,3.02-2.98l0.07-9.25
				c0.01-1.65-1.33-3.01-2.98-3.02l-15.6-0.13c-1.65-0.01-3.01,1.33-3.02,2.98L442.2,611.36z"/>
		</g>
		<g>
			<path class="st16" d="M413.85,611.13c-0.01,1.65,1.33,3.01,2.98,3.02l15.6,0.13c1.65,0.01,3.01-1.33,3.02-2.98l0.07-9.25
				c0.01-1.65-1.33-3.01-2.98-3.02l-15.6-0.13c-1.65-0.01-3.01,1.33-3.02,2.98L413.85,611.13z"/>
		</g>
		<g>
			<path class="st16" d="M385.5,610.9c-0.01,1.65,1.33,3.01,2.98,3.02l15.6,0.13c1.65,0.01,3.01-1.33,3.02-2.98l0.07-9.25
				c0.01-1.65-1.33-3.01-2.98-3.02l-15.6-0.13c-1.65-0.01-3.01,1.33-3.02,2.98L385.5,610.9z"/>
		</g>
		<g>
			<path class="st16" d="M357.15,610.67c-0.01,1.65,1.33,3.01,2.98,3.02l15.6,0.13c1.65,0.01,3.01-1.33,3.02-2.98l0.07-9.25
				c0.01-1.65-1.33-3.01-2.98-3.02l-15.6-0.13c-1.65-0.01-3.01,1.33-3.02,2.98L357.15,610.67z"/>
		</g>
		<g>
			<path class="st16" d="M328.81,610.44c-0.01,1.65,1.33,3.01,2.98,3.02l15.6,0.13c1.65,0.01,3.01-1.33,3.02-2.98l0.07-9.25
				c0.01-1.65-1.33-3.01-2.98-3.02l-15.6-0.13c-1.65-0.01-3.01,1.33-3.02,2.98L328.81,610.44z"/>
		</g>
		<g>
			<path class="st16" d="M300.46,610.22c-0.01,1.65,1.33,3.01,2.98,3.02l15.6,0.13c1.65,0.01,3.01-1.33,3.02-2.98l0.07-9.25
				c0.01-1.65-1.33-3.01-2.98-3.02l-15.6-0.13c-1.65-0.01-3.01,1.33-3.02,2.98L300.46,610.22z"/>
		</g>
	</g>
	<g>
		<g>
			<path class="st16" d="M583.93,592.52c-0.01,1.65,1.33,3.01,2.98,3.02l15.6,0.13c1.65,0.01,3.01-1.33,3.02-2.98l0.07-9.25
				c0.01-1.65-1.33-3.01-2.98-3.02l-15.6-0.13c-1.65-0.01-3.01,1.33-3.02,2.98L583.93,592.52z"/>
		</g>
		<g>
			<path class="st16" d="M555.58,592.29c-0.01,1.65,1.33,3.01,2.98,3.02l15.6,0.13c1.65,0.01,3.01-1.33,3.02-2.98l0.07-9.25
				c0.01-1.65-1.33-3.01-2.98-3.02l-15.6-0.13c-1.65-0.01-3.01,1.33-3.02,2.98L555.58,592.29z"/>
		</g>
		<g>
			<path class="st16" d="M527.24,592.06c-0.01,1.65,1.33,3.01,2.98,3.02l15.6,0.13c1.65,0.01,3.01-1.33,3.02-2.98l0.07-9.25
				c0.01-1.65-1.33-3.01-2.98-3.02l-15.6-0.13c-1.65-0.01-3.01,1.33-3.02,2.98L527.24,592.06z"/>
		</g>
		<g>
			<path class="st16" d="M498.89,591.83c-0.01,1.65,1.33,3.01,2.98,3.02l15.6,0.13c1.65,0.01,3.01-1.33,3.02-2.98l0.07-9.25
				c0.01-1.65-1.33-3.01-2.98-3.02l-15.6-0.13c-1.65-0.01-3.01,1.33-3.02,2.98L498.89,591.83z"/>
		</g>
		<g>
			<path class="st16" d="M470.54,591.6c-0.01,1.65,1.33,3.01,2.98,3.02l15.6,0.13c1.65,0.01,3.01-1.33,3.02-2.98l0.07-9.25
				c0.01-1.65-1.33-3.01-2.98-3.02l-15.6-0.13c-1.65-0.01-3.01,1.33-3.02,2.98L470.54,591.6z"/>
		</g>
		<g>
			<path class="st16" d="M442.2,591.38c-0.01,1.65,1.33,3.01,2.98,3.02l15.6,0.13c1.65,0.01,3.01-1.33,3.02-2.98l0.07-9.25
				c0.01-1.65-1.33-3.01-2.98-3.02l-15.6-0.13c-1.65-0.01-3.01,1.33-3.02,2.98L442.2,591.38z"/>
		</g>
		<g>
			<path class="st16" d="M413.85,591.15c-0.01,1.65,1.33,3.01,2.98,3.02l15.6,0.13c1.65,0.01,3.01-1.33,3.02-2.98l0.07-9.25
				c0.01-1.65-1.33-3.01-2.98-3.02l-15.6-0.13c-1.65-0.01-3.01,1.33-3.02,2.98L413.85,591.15z"/>
		</g>
		<g>
			<path class="st16" d="M385.5,590.92c-0.01,1.65,1.33,3.01,2.98,3.02l15.6,0.13c1.65,0.01,3.01-1.33,3.02-2.98l0.07-9.25
				c0.01-1.65-1.33-3.01-2.98-3.02l-15.6-0.13c-1.65-0.01-3.01,1.33-3.02,2.98L385.5,590.92z"/>
		</g>
		<g>
			<path class="st16" d="M357.15,590.69c-0.01,1.65,1.33,3.01,2.98,3.02l15.6,0.13c1.65,0.01,3.01-1.33,3.02-2.98l0.07-9.25
				c0.01-1.65-1.33-3.01-2.98-3.02l-15.6-0.13c-1.65-0.01-3.01,1.33-3.02,2.98L357.15,590.69z"/>
		</g>
		<g>
			<path class="st16" d="M328.81,590.46c-0.01,1.65,1.33,3.01,2.98,3.02l15.6,0.13c1.65,0.01,3.01-1.33,3.02-2.98l0.07-9.25
				c0.01-1.65-1.33-3.01-2.98-3.02l-15.6-0.13c-1.65-0.01-3.01,1.33-3.02,2.98L328.81,590.46z"/>
		</g>
		<g>
			<path class="st16" d="M300.46,590.23c-0.01,1.65,1.33,3.01,2.98,3.02l15.6,0.13c1.65,0.01,3.01-1.33,3.02-2.98l0.07-9.25
				c0.01-1.65-1.33-3.01-2.98-3.02l-15.6-0.13c-1.65-0.01-3.01,1.33-3.02,2.98L300.46,590.23z"/>
		</g>
	</g>
	<g>
		<g>
			<path class="st16" d="M584.09,573.41c-0.01,1.65,1.33,3.01,2.98,3.02l15.6,0.13c1.65,0.01,3.01-1.33,3.02-2.98l0.07-9.25
				c0.01-1.65-1.33-3.01-2.98-3.02l-15.6-0.13c-1.65-0.01-3.01,1.33-3.02,2.98L584.09,573.41z"/>
		</g>
		<g>
			<path class="st16" d="M555.74,573.18c-0.01,1.65,1.33,3.01,2.98,3.02l15.6,0.13c1.65,0.01,3.01-1.33,3.02-2.98l0.07-9.25
				c0.01-1.65-1.33-3.01-2.98-3.02l-15.6-0.13c-1.65-0.01-3.01,1.33-3.02,2.98L555.74,573.18z"/>
		</g>
		<g>
			<path class="st16" d="M527.39,572.95c-0.01,1.65,1.33,3.01,2.98,3.02l15.6,0.13c1.65,0.01,3.01-1.33,3.02-2.98l0.07-9.25
				c0.01-1.65-1.33-3.01-2.98-3.02l-15.6-0.13c-1.65-0.01-3.01,1.33-3.02,2.98L527.39,572.95z"/>
		</g>
		<g>
			<path class="st16" d="M499.04,572.73c-0.01,1.65,1.33,3.01,2.98,3.02l15.6,0.13c1.65,0.01,3.01-1.33,3.02-2.98l0.07-9.25
				c0.01-1.65-1.33-3.01-2.98-3.02l-15.6-0.13c-1.65-0.01-3.01,1.33-3.02,2.98L499.04,572.73z"/>
		</g>
		<g>
			<path class="st16" d="M470.7,572.5c-0.01,1.65,1.33,3.01,2.98,3.02l15.6,0.13c1.65,0.01,3.01-1.33,3.02-2.98l0.07-9.25
				c0.01-1.65-1.33-3.01-2.98-3.02l-15.6-0.13c-1.65-0.01-3.01,1.33-3.02,2.98L470.7,572.5z"/>
		</g>
		<g>
			<path class="st16" d="M442.35,572.27c-0.01,1.65,1.33,3.01,2.98,3.02l15.6,0.13c1.65,0.01,3.01-1.33,3.02-2.98l0.07-9.25
				c0.01-1.65-1.33-3.01-2.98-3.02l-15.6-0.13c-1.65-0.01-3.01,1.33-3.02,2.98L442.35,572.27z"/>
		</g>
		<g>
			<path class="st16" d="M414,572.04c-0.01,1.65,1.33,3.01,2.98,3.02l15.6,0.13c1.65,0.01,3.01-1.33,3.02-2.98l0.07-9.25
				c0.01-1.65-1.33-3.01-2.98-3.02l-15.6-0.13c-1.65-0.01-3.01,1.33-3.02,2.98L414,572.04z"/>
		</g>
		<g>
			<path class="st16" d="M385.65,571.81c-0.01,1.65,1.33,3.01,2.98,3.02l15.6,0.13c1.65,0.01,3.01-1.33,3.02-2.98l0.07-9.25
				c0.01-1.65-1.33-3.01-2.98-3.02l-15.6-0.13c-1.65-0.01-3.01,1.33-3.02,2.98L385.65,571.81z"/>
		</g>
		<g>
			<path class="st16" d="M357.31,571.58c-0.01,1.65,1.33,3.01,2.98,3.02l15.6,0.13c1.65,0.01,3.01-1.33,3.02-2.98l0.07-9.25
				c0.01-1.65-1.33-3.01-2.98-3.02l-15.6-0.13c-1.65-0.01-3.01,1.33-3.02,2.98L357.31,571.58z"/>
		</g>
		<g>
			<path class="st16" d="M328.96,571.36c-0.01,1.65,1.33,3.01,2.98,3.02l15.6,0.13c1.65,0.01,3.01-1.33,3.02-2.98l0.07-9.25
				c0.01-1.65-1.33-3.01-2.98-3.02l-15.6-0.13c-1.65-0.01-3.01,1.33-3.02,2.98L328.96,571.36z"/>
		</g>
		<g>
			<path class="st16" d="M300.61,571.13c-0.01,1.65,1.33,3.01,2.98,3.02l15.6,0.13c1.65,0.01,3.01-1.33,3.02-2.98l0.07-9.25
				c0.01-1.65-1.33-3.01-2.98-3.02l-15.6-0.13c-1.65-0.01-3.01,1.33-3.02,2.98L300.61,571.13z"/>
		</g>
	</g>
	
		<rect x="555.67" y="600.27" transform="matrix(-1 -8.052133e-03 8.052133e-03 -1 1155.7916 1220.3171)" class="st16" width="49.37" height="15.13"/>
	<path class="st16" d="M385.75,629.7c-0.01,1.65,1.33,3.01,2.98,3.02l157.5,1.27c1.65,0.01,3.01-1.33,3.02-2.98l0.07-8.27
		c0.01-1.65-1.33-3.01-2.98-3.02l-157.5-1.27c-1.65-0.01-3.01,1.33-3.02,2.98L385.75,629.7z"/>
	<path class="st16" d="M357.44,629.47c-0.01,1.65,1.33,3.01,2.98,3.02l15.46,0.12c1.65,0.01,3.01-1.33,3.02-2.98l0.07-8.27
		c0.01-1.65-1.33-3.01-2.98-3.02l-15.46-0.12c-1.65-0.01-3.01,1.33-3.02,2.98L357.44,629.47z"/>
	<path class="st16" d="M300.52,629.21c-0.01,1.65,1.33,3.01,2.98,3.02l15.6,0.13c1.65,0.01,3.01-1.33,3.02-2.98l0.07-8.27
		c0.01-1.65-1.33-3.01-2.98-3.02l-15.6-0.13c-1.65-0.01-3.01,1.33-3.02,2.98L300.52,629.21z"/>
	<path class="st16" d="M329.15,629.24c-0.01,1.65,1.33,3.01,2.98,3.02l15.6,0.13c1.65,0.01,3.01-1.33,3.02-2.98l0.07-8.27
		c0.01-1.65-1.33-3.01-2.98-3.02l-15.6-0.13c-1.65-0.01-3.01,1.33-3.02,2.98L329.15,629.24z"/>
	<path class="st16" d="M555.46,631.16c-0.01,1.65,1.33,3.01,2.98,3.02l15.6,0.13c1.65,0.01,3.01-1.33,3.02-2.98l0.07-8.27
		c0.01-1.65-1.33-3.01-2.98-3.02l-15.6-0.13c-1.65-0.01-3.01,1.33-3.02,2.98L555.46,631.16z"/>
	<path class="st16" d="M584.09,631.2c-0.01,1.65,1.33,3.01,2.98,3.02l15.6,0.13c1.65,0.01,3.01-1.33,3.02-2.98l0.07-8.27
		c0.01-1.65-1.33-3.01-2.98-3.02l-15.6-0.13c-1.65-0.01-3.01,1.33-3.02,2.98L584.09,631.2z"/>
	<path class="st16" d="M317.41,590.41c-0.01,1.65,1.33,3.01,2.98,3.02l15.6,0.13c1.65,0.01,3.01-1.33,3.02-2.98l0.07-9.08
		c0.01-1.65-1.33-3.01-2.98-3.02l-15.6-0.13c-1.65-0.01-3.01,1.33-3.02,2.98L317.41,590.41z"/>
	<path class="st16" d="M567.04,573.27c-0.01,1.65,1.33,3.01,2.98,3.02l15.6,0.13c1.65,0.01,3.01-1.33,3.02-2.98l0.07-9.24
		c0.01-1.65-1.33-3.01-2.98-3.02l-15.6-0.13c-1.65-0.01-3.01,1.33-3.02,2.98L567.04,573.27z"/>
	<path class="st16" d="M583.99,581.4c-0.01,1.65,1.33,3.01,2.98,3.02l15.63,0.13c1.65,0.01,3.01-1.33,3.02-2.98l0.05-6.31
		c0.01-1.65-1.33-3.01-2.98-3.02l-15.63-0.13c-1.65-0.01-3.01,1.33-3.02,2.98L583.99,581.4z"/>
	<g>
		<g>
			<path class="st19" d="M426.14,435.3l189.15,0.01L426.14,435.3z"/>
			<path class="st19" d="M425.52,445.21l185.87,0.01L425.52,445.21z"/>
			<path class="st19" d="M424.83,454.55l182.79,0.01L424.83,454.55z"/>
		</g>
		<g>
			<path class="st19" d="M424.18,462.25l180.25,0.01L424.18,462.25z"/>
			<path class="st19" d="M423.7,470.08l177.66,0.01L423.7,470.08z"/>
			<path class="st19" d="M423.15,477.52l175.2,0.01L423.15,477.52z"/>
		</g>
	</g>
	<path class="st16" d="M328.91,533.29c-0.01,1.65,1.33,3.01,2.98,3.02l15.6,0.13c1.65,0.01,3.01-1.33,3.02-2.98l0.07-8.27
		c0.01-1.65-1.33-3.01-2.98-3.02l-15.6-0.13c-1.65-0.01-3.01,1.33-3.02,2.98L328.91,533.29z"/>
	<path class="st16" d="M442.43,533.84c-0.01,1.65,1.33,3.01,2.98,3.02l15.6,0.13c1.65,0.01,3.01-1.33,3.02-2.98l0.07-8.27
		c0.01-1.65-1.33-3.01-2.98-3.02l-15.6-0.13c-1.65-0.01-3.01,1.33-3.02,2.98L442.43,533.84z"/>
	<path class="st16" d="M556.31,535.11c-0.01,1.65,1.33,3.01,2.98,3.02l15.6,0.13c1.65,0.01,3.01-1.33,3.02-2.98l0.07-8.27
		c0.01-1.65-1.33-3.01-2.98-3.02l-15.6-0.13c-1.65-0.01-3.01,1.33-3.02,2.98L556.31,535.11z"/>
</g>
<path class="st20" d="M378.59,603.38c-9.3,9-17.3,20.02-24.15,33.24c-1,0.76-1.82,0.3-2.11-0.26
	C357.54,624.83,367,609.88,378.59,603.38z M343.51,616.87c2.88-4.69,8.13-8.88,12.63-12.11c-6.66,7.7-12.12,16.78-15.93,24.98
	c-1.03,1.02-1.51,0.28-1.72-0.39C339.72,624.8,341.2,620.64,343.51,616.87z M405.21,646.78c-4.16-2.16-9.29-0.54-11.46,3.63
	l-9.01,17.37l-13.35,8.42l-0.44-0.89l5.62-14.98l-0.08-0.39c8.31-17.72,15.87-30.97,32.27-44.84c2.9-2.46,3.27-6.81,0.81-9.72
	c-2.46-2.91-6.81-3.27-9.72-0.81c-14.7,12.44-23.14,24.56-30.45,38.54c-0.88,0.25-1.65-0.15-2.29-0.96
	c8.72-16.55,19.34-29.1,32.24-38.08c3.12-2.18,3.03-7.65,0.85-10.77c-2.18-3.13-5.61-2.73-8.74-0.55c-2.59,1.81-5.08,3.74-7.51,5.79
	c0.6-1.67,0.57-3.57-0.25-5.3c-1.63-3.44-5.74-4.91-9.19-3.28c-5.57,2.64-10.76,6.74-15.45,11.61c0.8-1.89,0.64-4.14-0.63-5.94
	c-1.96-2.76-5.78-3.42-8.55-1.47c-5.61,3.97-12.6,9.41-16.82,16.3c-3.91,6.37-5.89,13.12-7.54,20.21l-17.42,41.9
	c-2.57,8.62-2.02,13.53,0.03,19.39c-2.36,4.45-4.45,8.89-6.61,13.31l-0.27-0.13l-2.93,5.42l-10.98-5.55l-8.81,18.3l-2.55,5.3h-0.01
	L187.12,900h88.67l69.82-136.19l-2.42-1.22L355,739.22l-10.88-5.51l-9.25-4.67l1.02-2.19l8.19-15.44c2.27,1.02,8.01-0.44,12-3.04
	l19.58-14.75l20.1-12.69c1.27-0.81,2.31-1.93,3.01-3.27l10.07-19.42C411,654.08,409.38,648.94,405.21,646.78z"/>
<g>
	<path class="st21" d="M859.49,156.02l0.69-2.98c0.96-4.12-1.61-8.23-5.73-9.19l-17.65-4.1c-4.12-0.96-8.23,1.61-9.19,5.72
		l-1.1,4.72c-0.13,0.55-0.68,0.89-1.23,0.76l0,0c-0.55-0.13-0.89-0.68-0.76-1.23l0.4-1.74c0.96-4.12-1.61-8.23-5.72-9.19l-17.65-4.1
		c-4.12-0.96-8.23,1.61-9.19,5.72l0,0c-0.35,1.51-1.86,2.45-3.37,2.1l-54.44-12.65c-1.51-0.35-2.45-1.86-2.1-3.37l0.69-2.98
		c0.96-4.12-1.61-8.23-5.72-9.19l-17.65-4.1c-4.12-0.96-8.23,1.61-9.19,5.72l-0.69,2.98c-0.35,1.51-1.86,2.45-3.37,2.1l-17.65-4.1
		c-1.51-0.35-2.45-1.86-2.1-3.37l0,0c0.96-4.12-1.61-8.23-5.72-9.19l-17.65-4.1c-4.12-0.96-8.23,1.61-9.19,5.72l0,0
		c-0.35,1.51-1.86,2.45-3.37,2.1l-22.37-5.2c-1.51-0.35-3.02,0.59-3.37,2.1l-51.39,221.17c-0.35,1.51,0.59,3.02,2.1,3.37
		l262.5,60.99c1.51,0.35,3.02-0.59,3.37-2.1l51.39-221.17c0.35-1.51-0.59-3.02-2.1-3.37l-19.39-4.5
		C860.08,159.04,859.14,157.53,859.49,156.02z"/>
	<g>
		<g>
			<path class="st22" d="M811.3,379.61l-246.62-57.3c-5.9-1.37-9.56-7.26-8.19-13.15l47.7-205.29c1.37-5.9,7.26-9.56,13.15-8.19
				l246.62,57.3c5.9,1.37,9.56,7.26,8.19,13.15l-47.7,205.29C823.08,377.31,817.19,380.98,811.3,379.61z"/>
			<path class="st23" d="M807.46,375.99l-237.23-55.12c-4.6-1.07-7.46-5.66-6.39-10.26l47.73-205.42c1.07-4.6,5.66-7.46,10.26-6.39
				l237.23,55.12c4.6,1.07,7.46,5.66,6.39,10.26L817.71,369.6C816.65,374.2,812.05,377.06,807.46,375.99z"/>
			<g>
				<path class="st5" d="M805.73,374.52L698.86,349.8c-4.64-1.07-7.53-5.71-6.46-10.35l46.87-202.63c1.07-4.64,5.71-7.53,10.35-6.46
					l106.87,24.72c4.64,1.07,7.53,5.71,6.46,10.35l-46.87,202.63C815.01,372.7,810.37,375.59,805.73,374.52z"/>
				<g>
					<g>
						<path class="st24" d="M730.63,217.52c-0.25,1.1-1.41,1.78-2.57,1.51l-7.4-1.71l0.93-4l7.4,1.71
							C730.14,215.3,730.89,216.43,730.63,217.52z"/>
					</g>
					<path class="st24" d="M728.4,226.79c-0.25,1.1-1.41,1.78-2.57,1.51l-7.32-1.69l0.93-4l7.32,1.69c0.58,0.13,1.05,0.48,1.35,0.93
						C728.4,225.68,728.53,226.24,728.4,226.79z"/>
					<path class="st24" d="M726.17,236.05c-0.25,1.1-1.41,1.78-2.57,1.51l-7.23-1.67l0.93-4l7.23,1.67
						c0.58,0.13,1.06,0.48,1.36,0.93C726.18,234.95,726.3,235.51,726.17,236.05z"/>
					<path class="st24" d="M714.22,245.18l7.15,1.65c1.16,0.27,2.32-0.41,2.57-1.51c0.13-0.55,0.01-1.1-0.3-1.56
						c-0.3-0.45-0.77-0.8-1.35-0.93l-7.15-1.65L714.22,245.18z"/>
					<path class="st24" d="M712.07,254.46l7.07,1.64c1.16,0.27,2.31-0.42,2.57-1.51c0.13-0.55,0.01-1.1-0.29-1.56
						c-0.3-0.45-0.77-0.8-1.35-0.93l-7.07-1.64L712.07,254.46z"/>
					<path class="st24" d="M719.48,263.85c-0.25,1.1-1.41,1.78-2.57,1.51l-6.99-1.62l0.93-4l6.99,1.62
						c0.58,0.13,1.06,0.48,1.35,0.93C719.48,262.75,719.61,263.3,719.48,263.85z"/>
					<path class="st24" d="M717.25,273.12c-0.25,1.1-1.41,1.78-2.57,1.51l-6.9-1.6l0.93-4l6.9,1.6c0.58,0.13,1.05,0.48,1.35,0.93
						C717.25,272.01,717.37,272.57,717.25,273.12z"/>
					<path class="st24" d="M715.02,282.38c-0.25,1.1-1.41,1.78-2.57,1.51l-6.82-1.58l0.93-4l6.82,1.58
						c0.58,0.13,1.06,0.48,1.35,0.93C715.02,281.27,715.15,281.83,715.02,282.38z"/>
					<path class="st24" d="M703.48,291.6l6.74,1.56c1.16,0.27,2.32-0.41,2.57-1.51c0.13-0.55,0.01-1.1-0.3-1.56
						c-0.3-0.45-0.77-0.8-1.35-0.93l-6.74-1.56L703.48,291.6z"/>
					<path class="st24" d="M710.56,300.91c-0.25,1.1-1.41,1.78-2.57,1.51l-6.66-1.54l0.93-4l6.66,1.54
						c0.58,0.13,1.06,0.48,1.35,0.93C710.56,299.81,710.68,300.36,710.56,300.91z"/>
					<path class="st24" d="M708.33,310.18c-0.25,1.1-1.41,1.78-2.57,1.51l-6.57-1.52l0.93-4l6.57,1.52
						c0.58,0.13,1.06,0.48,1.35,0.93C708.33,309.07,708.45,309.62,708.33,310.18z"/>
					<path class="st24" d="M706.09,319.44c-0.25,1.1-1.41,1.78-2.57,1.51l-6.49-1.5l0.93-4l6.49,1.5c0.58,0.13,1.05,0.48,1.35,0.93
						C706.1,318.34,706.22,318.89,706.09,319.44z"/>
					<path class="st24" d="M703.86,328.71c-0.25,1.1-1.41,1.78-2.57,1.51l-6.4-1.48l0.93-4l6.4,1.48c0.58,0.13,1.06,0.48,1.35,0.93
						C703.87,327.6,703.99,328.16,703.86,328.71z"/>
					<g>
						<path class="st24" d="M701.63,337.97c-0.25,1.1-1.41,1.78-2.57,1.51l-6.32-1.46l0.93-4l6.32,1.46
							C701.15,335.76,701.89,336.87,701.63,337.97z"/>
					</g>
				</g>
				<g>
					<g>
						<path class="st25" d="M730.71,213.6c-0.8-0.19-1.6-0.05-2.24,0.32l0.74,0.17c1.16,0.27,1.9,1.39,1.64,2.49l0,0
							c-0.25,1.1-1.41,1.78-2.57,1.51l-0.74-0.17c0.42,0.62,1.07,1.09,1.87,1.27c1.63,0.38,3.24-0.57,3.59-2.12
							C733.37,215.53,732.34,213.97,730.71,213.6z"/>
						<path class="st26" d="M730.85,216.58L730.85,216.58c0.25-1.1-0.49-2.22-1.64-2.49l-0.74-0.17l-9.02-2.09
							c-1.16-0.27-2.32,0.41-2.57,1.51l0,0c-0.25,1.1,0.49,2.22,1.64,2.49l9.02,2.09l0.74,0.17
							C729.44,218.36,730.6,217.68,730.85,216.58z"/>
					</g>
					<g>
						<path class="st25" d="M726.23,223.18l0.74,0.17c1.16,0.27,1.9,1.39,1.64,2.49l0,0c-0.25,1.1-1.41,1.78-2.57,1.51l-0.74-0.17
							c0.42,0.62,1.07,1.09,1.87,1.27c1.63,0.38,3.24-0.57,3.59-2.12c0.36-1.55-0.67-3.1-2.3-3.48
							C727.67,222.68,726.88,222.81,726.23,223.18z"/>
						<path class="st26" d="M714.64,222.61L714.64,222.61c-0.25,1.1,0.49,2.22,1.64,2.49l9.02,2.09l0.74,0.17
							c1.16,0.27,2.32-0.41,2.57-1.51l0,0c0.25-1.1-0.49-2.22-1.64-2.49l-0.74-0.17l-9.02-2.09
							C716.05,220.83,714.9,221.51,714.64,222.61z"/>
					</g>
					<g>
						<path class="st25" d="M724,232.45l0.74,0.17c1.16,0.27,1.9,1.39,1.64,2.49l0,0c-0.25,1.1-1.41,1.78-2.57,1.51l-0.74-0.17
							c0.42,0.62,1.07,1.09,1.87,1.27c1.63,0.38,3.24-0.57,3.59-2.12c0.36-1.55-0.67-3.1-2.3-3.48
							C725.44,231.94,724.65,232.08,724,232.45z"/>
						<path class="st26" d="M712.41,231.88L712.41,231.88c-0.25,1.1,0.49,2.22,1.64,2.49l9.02,2.09l0.74,0.17
							c1.16,0.27,2.32-0.41,2.57-1.51l0,0c0.25-1.1-0.49-2.22-1.64-2.49l-0.74-0.17l-9.02-2.09
							C713.82,230.09,712.67,230.78,712.41,231.88z"/>
					</g>
					<g>
						<path class="st25" d="M721.77,241.72l0.74,0.17c1.16,0.27,1.9,1.39,1.64,2.49l0,0c-0.25,1.1-1.41,1.78-2.57,1.51l-0.74-0.17
							c0.42,0.62,1.07,1.09,1.87,1.27c1.63,0.38,3.24-0.57,3.59-2.12c0.36-1.55-0.67-3.1-2.3-3.48
							C723.21,241.21,722.42,241.35,721.77,241.72z"/>
						<path class="st26" d="M710.18,241.14L710.18,241.14c-0.25,1.1,0.49,2.22,1.64,2.49l9.02,2.09l0.74,0.17
							c1.16,0.27,2.32-0.41,2.57-1.51l0,0c0.25-1.1-0.49-2.22-1.64-2.49l-0.74-0.17l-9.02-2.09
							C711.59,239.36,710.43,240.04,710.18,241.14z"/>
					</g>
					<g>
						<path class="st25" d="M719.54,250.98l0.74,0.17c1.16,0.27,1.9,1.39,1.64,2.49l0,0c-0.25,1.1-1.41,1.78-2.57,1.51l-0.74-0.17
							c0.42,0.62,1.07,1.09,1.87,1.27c1.63,0.38,3.24-0.57,3.59-2.12c0.36-1.55-0.67-3.1-2.3-3.48
							C720.98,250.47,720.19,250.61,719.54,250.98z"/>
						<path class="st26" d="M707.95,250.41L707.95,250.41c-0.25,1.1,0.49,2.22,1.64,2.49l9.02,2.09l0.74,0.17
							c1.16,0.27,2.32-0.41,2.57-1.51l0,0c0.25-1.1-0.49-2.22-1.64-2.49l-0.74-0.17l-9.02-2.09
							C709.36,248.63,708.2,249.31,707.95,250.41z"/>
					</g>
					<g>
						<path class="st25" d="M717.31,260.25l0.74,0.17c1.16,0.27,1.9,1.39,1.64,2.49l0,0c-0.25,1.1-1.41,1.78-2.57,1.51l-0.74-0.17
							c0.42,0.62,1.07,1.09,1.87,1.27c1.63,0.38,3.24-0.57,3.59-2.12c0.36-1.55-0.67-3.1-2.3-3.48
							C718.75,259.74,717.96,259.88,717.31,260.25z"/>
						<path class="st26" d="M705.72,259.67L705.72,259.67c-0.25,1.1,0.49,2.22,1.64,2.49l9.02,2.09l0.74,0.17
							c1.16,0.27,2.32-0.41,2.57-1.51l0,0c0.25-1.1-0.49-2.22-1.64-2.49l-0.74-0.17l-9.02-2.09
							C707.13,257.89,705.97,258.57,705.72,259.67z"/>
					</g>
					<g>
						<path class="st25" d="M715.08,269.51l0.74,0.17c1.16,0.27,1.9,1.39,1.64,2.49l0,0c-0.25,1.1-1.41,1.78-2.57,1.51l-0.74-0.17
							c0.42,0.62,1.07,1.09,1.87,1.27c1.63,0.38,3.24-0.57,3.59-2.12c0.36-1.55-0.67-3.1-2.3-3.48
							C716.52,269,715.73,269.14,715.08,269.51z"/>
						<path class="st26" d="M703.49,268.94L703.49,268.94c-0.25,1.1,0.49,2.22,1.64,2.49l9.02,2.09l0.74,0.17
							c1.16,0.27,2.32-0.41,2.57-1.51l0,0c0.25-1.1-0.49-2.22-1.64-2.49l-0.74-0.17l-9.02-2.09
							C704.9,267.16,703.74,267.84,703.49,268.94z"/>
					</g>
					<g>
						<path class="st25" d="M712.85,278.78l0.74,0.17c1.16,0.27,1.9,1.39,1.64,2.49l0,0c-0.25,1.1-1.41,1.78-2.57,1.51l-0.74-0.17
							c0.42,0.62,1.07,1.09,1.87,1.27c1.63,0.38,3.24-0.57,3.59-2.12c0.36-1.55-0.67-3.1-2.3-3.48
							C714.29,278.27,713.49,278.41,712.85,278.78z"/>
						<path class="st26" d="M701.26,278.2L701.26,278.2c-0.25,1.1,0.49,2.22,1.64,2.49l9.02,2.09l0.74,0.17
							c1.16,0.27,2.32-0.41,2.57-1.51l0,0c0.25-1.1-0.49-2.22-1.64-2.49l-0.74-0.17l-9.02-2.09
							C702.67,276.42,701.51,277.1,701.26,278.2z"/>
					</g>
					<g>
						<path class="st25" d="M710.62,288.04l0.74,0.17c1.16,0.27,1.9,1.39,1.64,2.49l0,0c-0.25,1.1-1.41,1.78-2.57,1.51l-0.74-0.17
							c0.42,0.62,1.07,1.09,1.87,1.27c1.63,0.38,3.24-0.57,3.59-2.12c0.36-1.55-0.67-3.1-2.3-3.48
							C712.06,287.54,711.26,287.67,710.62,288.04z"/>
						<path class="st26" d="M699.03,287.47L699.03,287.47c-0.25,1.1,0.49,2.22,1.64,2.49l9.02,2.09l0.74,0.17
							c1.16,0.27,2.32-0.41,2.57-1.51l0,0c0.25-1.1-0.49-2.22-1.64-2.49l-0.74-0.17l-9.02-2.09
							C700.44,285.69,699.28,286.37,699.03,287.47z"/>
					</g>
					<g>
						<path class="st25" d="M708.39,297.31l0.74,0.17c1.16,0.27,1.9,1.39,1.64,2.49l0,0c-0.25,1.1-1.41,1.78-2.57,1.51l-0.74-0.17
							c0.42,0.62,1.07,1.09,1.87,1.27c1.63,0.38,3.24-0.57,3.59-2.12c0.36-1.54-0.67-3.1-2.3-3.48
							C709.83,296.8,709.03,296.94,708.39,297.31z"/>
						<path class="st26" d="M696.8,296.73L696.8,296.73c-0.25,1.1,0.49,2.22,1.64,2.49l9.02,2.09l0.74,0.17
							c1.16,0.27,2.32-0.41,2.57-1.51l0,0c0.25-1.1-0.49-2.22-1.64-2.49l-0.74-0.17l-9.02-2.09
							C698.21,294.95,697.05,295.63,696.8,296.73z"/>
					</g>
					<g>
						<path class="st25" d="M706.16,306.57l0.74,0.17c1.16,0.27,1.9,1.39,1.64,2.49l0,0c-0.25,1.1-1.41,1.78-2.57,1.51l-0.74-0.17
							c0.42,0.62,1.07,1.09,1.87,1.27c1.63,0.38,3.24-0.57,3.59-2.12c0.36-1.55-0.67-3.1-2.3-3.48
							C707.6,306.07,706.8,306.2,706.16,306.57z"/>
						<path class="st26" d="M694.57,306L694.57,306c-0.25,1.1,0.49,2.22,1.64,2.49l9.02,2.09l0.74,0.17
							c1.16,0.27,2.32-0.41,2.57-1.51l0,0c0.25-1.1-0.49-2.22-1.64-2.49l-0.74-0.17l-9.02-2.09
							C695.98,304.22,694.82,304.9,694.57,306z"/>
					</g>
					<g>
						<path class="st25" d="M703.93,315.84l0.74,0.17c1.16,0.27,1.9,1.39,1.64,2.49l0,0c-0.25,1.1-1.41,1.78-2.57,1.51l-0.74-0.17
							c0.42,0.62,1.07,1.09,1.87,1.27c1.63,0.38,3.24-0.57,3.59-2.12c0.36-1.55-0.67-3.1-2.3-3.48
							C705.37,315.33,704.57,315.47,703.93,315.84z"/>
						<path class="st26" d="M692.34,315.26L692.34,315.26c-0.25,1.1,0.49,2.22,1.64,2.49l9.02,2.09l0.74,0.17
							c1.16,0.27,2.32-0.41,2.57-1.51l0,0c0.25-1.1-0.49-2.22-1.64-2.49l-0.74-0.17l-9.02-2.09
							C693.75,313.48,692.59,314.16,692.34,315.26z"/>
					</g>
					<g>
						<path class="st25" d="M701.7,325.1l0.74,0.17c1.16,0.27,1.9,1.39,1.64,2.49l0,0c-0.25,1.1-1.41,1.78-2.57,1.51l-0.74-0.17
							c0.42,0.62,1.07,1.09,1.87,1.27c1.63,0.38,3.24-0.57,3.59-2.12c0.36-1.55-0.67-3.1-2.3-3.48
							C703.14,324.6,702.34,324.73,701.7,325.1z"/>
						<path class="st26" d="M690.1,324.53L690.1,324.53c-0.25,1.1,0.49,2.22,1.64,2.49l9.02,2.09l0.74,0.17
							c1.16,0.27,2.32-0.41,2.57-1.51l0,0c0.25-1.1-0.49-2.22-1.64-2.49l-0.74-0.17l-9.02-2.09
							C691.52,322.75,690.36,323.43,690.1,324.53z"/>
					</g>
					<g>
						<path class="st25" d="M701.71,334.05c-0.8-0.19-1.6-0.05-2.24,0.32l0.74,0.17c1.16,0.27,1.9,1.39,1.64,2.49
							c-0.25,1.1-1.41,1.78-2.57,1.51l-0.74-0.17c0.42,0.62,1.07,1.09,1.87,1.27c1.63,0.38,3.24-0.57,3.59-2.12
							C704.37,335.98,703.34,334.42,701.71,334.05z"/>
						<path class="st26" d="M701.85,337.03c0.25-1.1-0.49-2.22-1.64-2.49l-0.74-0.17l-9.02-2.09c-1.16-0.27-2.32,0.41-2.57,1.51
							c-0.25,1.1,0.49,2.22,1.64,2.49l9.02,2.09l0.74,0.17C700.44,338.81,701.6,338.13,701.85,337.03z"/>
					</g>
				</g>
				<g>
					<path class="st24" d="M748.77,143.63c-0.25,1.1-1.41,1.78-2.57,1.51l-6.9-1.6l0.93-4l6.9,1.6c0.58,0.13,1.05,0.48,1.35,0.93
						C748.77,142.52,748.9,143.08,748.77,143.63z"/>
					<path class="st24" d="M746.54,152.89c-0.25,1.1-1.41,1.78-2.57,1.51l-6.82-1.58l0.93-4l6.82,1.58
						c0.58,0.13,1.06,0.48,1.35,0.93C746.55,151.78,746.67,152.34,746.54,152.89z"/>
					<path class="st24" d="M735,162.11l6.74,1.56c1.16,0.27,2.32-0.41,2.57-1.51c0.13-0.55,0.01-1.1-0.3-1.56
						c-0.3-0.45-0.77-0.8-1.35-0.93l-6.74-1.56L735,162.11z"/>
					<path class="st24" d="M742.08,171.42c-0.25,1.1-1.41,1.78-2.57,1.51l-6.66-1.54l0.93-4l6.66,1.54
						c0.58,0.13,1.06,0.48,1.35,0.93C742.08,170.32,742.21,170.87,742.08,171.42z"/>
					<path class="st24" d="M739.85,180.69c-0.25,1.1-1.41,1.78-2.57,1.51l-6.57-1.52l0.93-4l6.57,1.52
						c0.58,0.13,1.06,0.48,1.35,0.93C739.86,179.58,739.98,180.13,739.85,180.69z"/>
					<path class="st24" d="M737.62,189.95c-0.25,1.1-1.41,1.78-2.57,1.51l-6.49-1.5l0.93-4l6.49,1.5c0.58,0.13,1.05,0.48,1.35,0.93
						C737.62,188.85,737.74,189.4,737.62,189.95z"/>
					<path class="st24" d="M735.39,199.22c-0.25,1.1-1.41,1.78-2.57,1.51l-6.4-1.48l0.93-4l6.4,1.48c0.58,0.13,1.06,0.48,1.35,0.93
						C735.39,198.11,735.52,198.66,735.39,199.22z"/>
					<g>
						<path class="st24" d="M733.15,208.48c-0.25,1.1-1.41,1.78-2.57,1.51l-6.32-1.46l0.93-4l6.32,1.46
							C732.67,206.26,733.41,207.38,733.15,208.48z"/>
					</g>
				</g>
				<g>
					<g>
						<path class="st25" d="M745.68,144.02c0.42,0.62,1.07,1.09,1.87,1.27c1.63,0.38,3.24-0.57,3.59-2.12
							c0.36-1.55-0.67-3.1-2.3-3.48c-0.8-0.19-1.6-0.05-2.24,0.32l0.74,0.17c1.16,0.27,1.9,1.39,1.64,2.49l0,0
							c-0.25,1.1-1.41,1.78-2.57,1.51L745.68,144.02z"/>
						<path class="st26" d="M736.66,141.93l9.02,2.09l0.74,0.17c1.16,0.27,2.32-0.41,2.57-1.51l0,0c0.25-1.1-0.49-2.22-1.64-2.49
							l-0.74-0.17l-9.02-2.09c-1.16-0.27-2.32,0.41-2.57,1.51l0,0C734.76,140.55,735.5,141.66,736.66,141.93z"/>
					</g>
					<g>
						<path class="st25" d="M743.45,153.28c0.42,0.62,1.07,1.09,1.87,1.27c1.63,0.38,3.24-0.57,3.59-2.12
							c0.36-1.55-0.67-3.1-2.3-3.48c-0.8-0.19-1.6-0.05-2.24,0.32l0.74,0.17c1.16,0.27,1.9,1.39,1.64,2.49l0,0
							c-0.25,1.1-1.41,1.78-2.57,1.51L743.45,153.28z"/>
						<path class="st26" d="M734.43,151.2l9.02,2.09l0.74,0.17c1.16,0.27,2.32-0.41,2.57-1.51l0,0c0.25-1.1-0.49-2.22-1.64-2.49
							l-0.74-0.17l-9.02-2.09c-1.16-0.27-2.32,0.41-2.57,1.51l0,0C732.53,149.81,733.27,150.93,734.43,151.2z"/>
					</g>
					<g>
						<path class="st25" d="M741.22,162.55c0.42,0.62,1.07,1.09,1.87,1.27c1.63,0.38,3.24-0.57,3.59-2.12
							c0.36-1.55-0.67-3.1-2.3-3.48c-0.8-0.19-1.6-0.05-2.24,0.32l0.74,0.17c1.16,0.27,1.9,1.39,1.64,2.49l0,0
							c-0.25,1.1-1.41,1.78-2.57,1.51L741.22,162.55z"/>
						<path class="st26" d="M732.2,160.46l9.02,2.09l0.74,0.17c1.16,0.27,2.32-0.41,2.57-1.51l0,0c0.25-1.1-0.49-2.22-1.64-2.49
							l-0.74-0.17l-9.02-2.09c-1.16-0.27-2.32,0.41-2.57,1.51l0,0C730.3,159.08,731.04,160.2,732.2,160.46z"/>
					</g>
					<g>
						<path class="st25" d="M738.99,171.82c0.42,0.62,1.07,1.09,1.87,1.27c1.63,0.38,3.24-0.57,3.59-2.12
							c0.36-1.55-0.67-3.1-2.3-3.48c-0.8-0.19-1.6-0.05-2.24,0.32l0.74,0.17c1.16,0.27,1.9,1.39,1.64,2.49l0,0
							c-0.25,1.1-1.41,1.78-2.57,1.51L738.99,171.82z"/>
						<path class="st26" d="M729.96,169.73l9.02,2.09l0.74,0.17c1.16,0.27,2.32-0.41,2.57-1.51l0,0c0.25-1.1-0.49-2.22-1.64-2.49
							l-0.74-0.17l-9.02-2.09c-1.16-0.27-2.32,0.41-2.57,1.51l0,0C728.07,168.34,728.81,169.46,729.96,169.73z"/>
					</g>
					<g>
						<path class="st25" d="M736.76,181.08c0.42,0.62,1.07,1.09,1.87,1.27c1.63,0.38,3.24-0.57,3.59-2.12
							c0.36-1.55-0.67-3.1-2.3-3.48c-0.8-0.19-1.6-0.05-2.24,0.32l0.74,0.17c1.16,0.27,1.9,1.39,1.64,2.49l0,0
							c-0.25,1.1-1.41,1.78-2.57,1.51L736.76,181.08z"/>
						<path class="st26" d="M727.73,178.99l9.02,2.09l0.74,0.17c1.16,0.27,2.32-0.41,2.57-1.51l0,0c0.25-1.1-0.49-2.22-1.64-2.49
							l-0.74-0.17l-9.02-2.09c-1.16-0.27-2.32,0.41-2.57,1.51l0,0C725.84,177.61,726.58,178.73,727.73,178.99z"/>
					</g>
					<g>
						<path class="st25" d="M734.53,190.35c0.42,0.62,1.07,1.09,1.87,1.27c1.63,0.38,3.24-0.57,3.59-2.12
							c0.36-1.55-0.67-3.1-2.3-3.48c-0.8-0.19-1.6-0.05-2.24,0.32l0.74,0.17c1.16,0.27,1.9,1.39,1.64,2.49l0,0
							c-0.25,1.1-1.41,1.78-2.57,1.51L734.53,190.35z"/>
						<path class="st26" d="M725.5,188.26l9.02,2.09l0.74,0.17c1.16,0.27,2.32-0.41,2.57-1.51l0,0c0.25-1.1-0.49-2.22-1.64-2.49
							l-0.74-0.17l-9.02-2.09c-1.16-0.27-2.32,0.41-2.57,1.51l0,0C723.6,186.87,724.34,187.99,725.5,188.26z"/>
					</g>
					<g>
						<path class="st25" d="M732.29,199.61c0.42,0.62,1.07,1.09,1.87,1.27c1.63,0.38,3.24-0.57,3.59-2.12
							c0.36-1.55-0.67-3.1-2.3-3.48c-0.8-0.19-1.6-0.05-2.24,0.32l0.74,0.17c1.16,0.27,1.9,1.39,1.64,2.49l0,0
							c-0.25,1.1-1.41,1.78-2.57,1.51L732.29,199.61z"/>
						<path class="st26" d="M723.27,197.53l9.02,2.09l0.74,0.17c1.16,0.27,2.32-0.41,2.57-1.51l0,0c0.25-1.1-0.49-2.22-1.64-2.49
							l-0.74-0.17l-9.02-2.09c-1.16-0.27-2.32,0.41-2.57,1.51l0,0C721.37,196.14,722.11,197.26,723.27,197.53z"/>
					</g>
					<g>
						<path class="st25" d="M733.23,204.56c-0.8-0.19-1.6-0.05-2.24,0.32l0.74,0.17c1.16,0.27,1.9,1.39,1.64,2.49
							c-0.25,1.1-1.41,1.78-2.57,1.51l-0.74-0.17c0.42,0.62,1.07,1.09,1.87,1.27c1.63,0.38,3.24-0.57,3.59-2.12
							C735.89,206.49,734.86,204.93,733.23,204.56z"/>
						<path class="st26" d="M733.38,207.54c0.25-1.1-0.49-2.22-1.64-2.49l-0.74-0.17l-9.02-2.09c-1.16-0.27-2.32,0.41-2.57,1.51
							c-0.25,1.1,0.49,2.22,1.64,2.49l9.02,2.09l0.74,0.17C731.97,209.32,733.12,208.64,733.38,207.54z"/>
					</g>
				</g>
				<g class="st27">
					<line class="st28" x1="760.28" y1="147.92" x2="844.69" y2="167.46"/>
					<line class="st28" x1="757.02" y1="162.28" x2="841.42" y2="181.81"/>
					<line class="st28" x1="753.75" y1="176.63" x2="838.16" y2="196.16"/>
					<line class="st28" x1="750.49" y1="190.98" x2="834.89" y2="210.52"/>
					<line class="st28" x1="747.23" y1="205.33" x2="831.63" y2="224.87"/>
					<line class="st28" x1="743.96" y1="219.68" x2="828.37" y2="239.22"/>
					<line class="st28" x1="740.7" y1="234.04" x2="825.1" y2="253.57"/>
					<line class="st28" x1="737.43" y1="248.39" x2="821.84" y2="267.92"/>
					<line class="st28" x1="734.17" y1="262.74" x2="818.57" y2="282.28"/>
					<line class="st28" x1="730.91" y1="277.09" x2="815.31" y2="296.63"/>
					<line class="st28" x1="727.64" y1="291.44" x2="812.05" y2="310.98"/>
					<line class="st28" x1="724.38" y1="305.8" x2="808.78" y2="325.33"/>
					<line class="st28" x1="721.11" y1="320.15" x2="805.52" y2="339.68"/>
					<line class="st28" x1="717.85" y1="334.5" x2="802.25" y2="354.04"/>
				</g>
			</g>
			<g>
				<g>
					<path class="st29" d="M571.91,319.87l106.8,25.03c4.64,1.09,9.28-1.79,10.37-6.43l47.45-202.5c1.09-4.64-1.79-9.28-6.43-10.37
						l-106.8-25.03c-4.64-1.09-9.28,1.79-10.37,6.43l-47.45,202.5C564.4,314.14,567.28,318.78,571.91,319.87z"/>
					<g>
						<g>
							<path class="st24" d="M708.63,212.18c-0.26,1.1,0.48,2.22,1.64,2.49l7.4,1.73l0.94-4l-7.4-1.73
								C710.05,210.41,708.89,211.09,708.63,212.18z"/>
						</g>
						<path class="st24" d="M706.55,221.48c-0.26,1.1,0.48,2.22,1.63,2.49l7.31,1.71l0.94-4l-7.31-1.71
							c-0.58-0.14-1.15-0.04-1.62,0.24C707.03,220.49,706.67,220.94,706.55,221.48z"/>
						<path class="st24" d="M704.45,230.78c-0.26,1.1,0.48,2.22,1.64,2.49l7.23,1.69l0.94-4l-7.23-1.69
							c-0.58-0.14-1.16-0.04-1.63,0.24C704.94,229.79,704.58,230.23,704.45,230.78z"/>
						<path class="st24" d="M711.15,244.25l-7.15-1.67c-1.16-0.27-1.9-1.39-1.64-2.49c0.13-0.55,0.48-0.99,0.95-1.27
							c0.46-0.27,1.04-0.37,1.62-0.24l7.15,1.67L711.15,244.25z"/>
						<path class="st24" d="M708.97,253.53l-7.07-1.66c-1.16-0.27-1.89-1.4-1.63-2.49c0.13-0.55,0.48-0.99,0.95-1.27
							c0.46-0.27,1.04-0.37,1.62-0.24l7.07,1.66L708.97,253.53z"/>
						<path class="st24" d="M698.18,258.68c-0.26,1.1,0.48,2.22,1.64,2.49l6.98,1.64l0.94-4l-6.98-1.64
							c-0.58-0.14-1.16-0.04-1.62,0.24C698.66,257.68,698.31,258.13,698.18,258.68z"/>
						<path class="st24" d="M696.09,267.98c-0.26,1.1,0.48,2.22,1.63,2.49l6.9,1.62l0.94-4l-6.9-1.62
							c-0.58-0.13-1.15-0.04-1.62,0.24C696.57,266.98,696.22,267.43,696.09,267.98z"/>
						<path class="st24" d="M694,277.27c-0.26,1.1,0.48,2.22,1.64,2.49l6.81,1.6l0.94-4l-6.81-1.6c-0.58-0.14-1.16-0.03-1.62,0.24
							C694.48,276.28,694.12,276.72,694,277.27z"/>
						<path class="st24" d="M700.28,290.64l-6.73-1.58c-1.16-0.27-1.9-1.39-1.64-2.49c0.13-0.55,0.48-0.99,0.95-1.27
							c0.46-0.27,1.04-0.37,1.62-0.24l6.73,1.58L700.28,290.64z"/>
						<path class="st24" d="M689.82,295.87c-0.26,1.1,0.48,2.22,1.63,2.49l6.65,1.56l0.94-4l-6.65-1.56
							c-0.58-0.14-1.16-0.03-1.62,0.24C690.3,294.87,689.94,295.31,689.82,295.87z"/>
						<path class="st24" d="M687.72,305.16c-0.26,1.1,0.48,2.22,1.64,2.49l6.57,1.54l0.94-4l-6.57-1.54
							c-0.58-0.14-1.16-0.03-1.62,0.24C688.21,304.17,687.85,304.61,687.72,305.16z"/>
						<path class="st24" d="M685.63,314.46c-0.26,1.1,0.48,2.22,1.63,2.49l6.49,1.52l0.94-4l-6.49-1.52
							c-0.58-0.13-1.16-0.03-1.62,0.24C686.12,313.47,685.76,313.91,685.63,314.46z"/>
						<path class="st24" d="M683.54,323.76c-0.26,1.1,0.48,2.22,1.64,2.49l6.4,1.5l0.94-4l-6.4-1.5c-0.58-0.14-1.16-0.03-1.62,0.24
							C684.02,322.77,683.67,323.21,683.54,323.76z"/>
						<g>
							<path class="st24" d="M681.45,333.06c-0.26,1.1,0.48,2.22,1.63,2.49l6.32,1.48l0.94-4l-6.32-1.48
								C682.87,331.28,681.71,331.96,681.45,333.06z"/>
						</g>
					</g>
					<g>
						<g>
							<path class="st25" d="M710.3,208.63c0.8,0.19,1.46,0.66,1.87,1.28l-0.74-0.17c-1.16-0.27-2.32,0.41-2.57,1.5l0,0
								c-0.26,1.1,0.48,2.22,1.64,2.49l0.74,0.17c-0.65,0.37-1.44,0.5-2.24,0.32c-1.63-0.38-2.65-1.94-2.29-3.49
								C707.06,209.19,708.67,208.25,710.3,208.63z"/>
							<path class="st26" d="M708.86,211.24L708.86,211.24c0.26-1.1,1.42-1.78,2.57-1.5l0.74,0.17l9.02,2.11
								c1.16,0.27,1.89,1.39,1.64,2.49l0,0c-0.26,1.1-1.42,1.78-2.57,1.51l-9.02-2.11l-0.74-0.17
								C709.34,213.46,708.6,212.34,708.86,211.24z"/>
						</g>
						<g>
							<path class="st25" d="M708.21,217.93c0.8,0.19,1.46,0.66,1.87,1.28l-0.74-0.17c-1.16-0.27-2.32,0.41-2.57,1.51l0,0
								c-0.26,1.1,0.48,2.22,1.64,2.49l0.74,0.17c-0.65,0.37-1.44,0.5-2.24,0.32c-1.63-0.38-2.65-1.94-2.29-3.49
								C704.97,218.49,706.58,217.55,708.21,217.93z"/>
							<path class="st26" d="M706.76,220.54L706.76,220.54c0.26-1.1,1.42-1.78,2.57-1.51l0.74,0.17l9.02,2.11
								c1.16,0.27,1.89,1.39,1.64,2.49l0,0c-0.26,1.1-1.42,1.78-2.57,1.51l-9.02-2.11l-0.74-0.17
								C707.24,222.76,706.51,221.64,706.76,220.54z"/>
						</g>
						<g>
							<path class="st25" d="M706.12,227.23c0.8,0.19,1.46,0.66,1.87,1.28l-0.74-0.17c-1.16-0.27-2.32,0.41-2.57,1.51l0,0
								c-0.26,1.1,0.48,2.22,1.64,2.49l0.74,0.17c-0.65,0.37-1.44,0.5-2.24,0.32c-1.63-0.38-2.65-1.94-2.29-3.49
								C702.88,227.79,704.49,226.84,706.12,227.23z"/>
							<path class="st26" d="M704.67,229.84L704.67,229.84c0.26-1.1,1.42-1.78,2.57-1.51l0.74,0.17l9.02,2.11
								c1.16,0.27,1.89,1.39,1.64,2.49l0,0c-0.26,1.1-1.42,1.78-2.57,1.51l-9.02-2.11l-0.74-0.17
								C705.15,232.06,704.42,230.94,704.67,229.84z"/>
						</g>
						<g>
							<path class="st25" d="M704.03,236.52c0.8,0.19,1.46,0.66,1.87,1.28l-0.74-0.17c-1.16-0.27-2.32,0.41-2.57,1.51l0,0
								c-0.26,1.1,0.48,2.22,1.64,2.49l0.74,0.17c-0.65,0.37-1.44,0.5-2.24,0.32c-1.63-0.38-2.65-1.94-2.29-3.49
								C700.79,237.09,702.4,236.14,704.03,236.52z"/>
							<path class="st26" d="M702.58,239.13L702.58,239.13c0.26-1.1,1.42-1.78,2.57-1.51l0.74,0.17l9.02,2.11
								c1.16,0.27,1.89,1.39,1.64,2.49l0,0c-0.26,1.1-1.42,1.78-2.57,1.51l-9.02-2.11l-0.74-0.17
								C703.06,241.35,702.33,240.23,702.58,239.13z"/>
						</g>
						<g>
							<path class="st25" d="M701.94,245.82c0.8,0.19,1.46,0.66,1.87,1.28l-0.74-0.17c-1.16-0.27-2.32,0.41-2.57,1.5l0,0
								c-0.26,1.1,0.48,2.22,1.64,2.49l0.74,0.17c-0.65,0.37-1.44,0.5-2.24,0.32c-1.63-0.38-2.65-1.94-2.29-3.49
								C698.7,246.38,700.31,245.44,701.94,245.82z"/>
							<path class="st26" d="M700.49,248.43L700.49,248.43c0.26-1.1,1.42-1.78,2.57-1.5l0.74,0.17l9.02,2.11
								c1.16,0.27,1.89,1.39,1.64,2.49l0,0c-0.26,1.1-1.42,1.78-2.57,1.51l-9.02-2.11l-0.74-0.17
								C700.97,250.65,700.23,249.53,700.49,248.43z"/>
						</g>
						<g>
							<path class="st25" d="M699.84,255.12c0.8,0.19,1.46,0.66,1.87,1.28l-0.74-0.17c-1.16-0.27-2.32,0.41-2.57,1.51l0,0
								c-0.26,1.1,0.48,2.22,1.64,2.49l0.74,0.17c-0.65,0.37-1.44,0.5-2.24,0.32c-1.63-0.38-2.65-1.94-2.29-3.49
								C696.61,255.68,698.22,254.74,699.84,255.12z"/>
							<path class="st26" d="M698.4,257.73L698.4,257.73c0.26-1.1,1.42-1.78,2.57-1.51l0.74,0.17l9.02,2.11
								c1.16,0.27,1.89,1.39,1.64,2.49l0,0c-0.26,1.1-1.42,1.78-2.57,1.51l-9.02-2.11l-0.74-0.17
								C698.88,259.95,698.14,258.83,698.4,257.73z"/>
						</g>
						<g>
							<path class="st25" d="M697.75,264.42c0.8,0.19,1.46,0.66,1.87,1.28l-0.74-0.17c-1.16-0.27-2.32,0.41-2.57,1.51l0,0
								c-0.26,1.1,0.48,2.22,1.64,2.49l0.74,0.17c-0.65,0.37-1.44,0.5-2.24,0.32c-1.63-0.38-2.65-1.94-2.29-3.49
								C694.51,264.98,696.13,264.04,697.75,264.42z"/>
							<path class="st26" d="M696.31,267.03L696.31,267.03c0.26-1.1,1.42-1.78,2.57-1.51l0.74,0.17l9.02,2.11
								c1.16,0.27,1.89,1.39,1.64,2.49l0,0c-0.26,1.1-1.42,1.78-2.57,1.51l-9.02-2.11l-0.74-0.17
								C696.79,269.25,696.05,268.13,696.31,267.03z"/>
						</g>
						<g>
							<path class="st25" d="M695.66,273.72c0.8,0.19,1.46,0.66,1.87,1.28l-0.74-0.17c-1.16-0.27-2.32,0.41-2.57,1.51l0,0
								c-0.26,1.1,0.48,2.22,1.64,2.49l0.74,0.17c-0.65,0.37-1.44,0.5-2.24,0.32c-1.63-0.38-2.65-1.94-2.29-3.49
								C692.42,274.28,694.04,273.33,695.66,273.72z"/>
							<path class="st26" d="M694.22,276.33L694.22,276.33c0.26-1.1,1.42-1.78,2.57-1.51l0.74,0.17l9.02,2.11
								c1.16,0.27,1.89,1.39,1.64,2.49l0,0c-0.26,1.1-1.42,1.78-2.57,1.51l-9.02-2.11l-0.74-0.17
								C694.7,278.55,693.96,277.43,694.22,276.33z"/>
						</g>
						<g>
							<path class="st25" d="M693.57,283.01c0.8,0.19,1.46,0.66,1.87,1.28l-0.74-0.17c-1.16-0.27-2.32,0.41-2.57,1.51l0,0
								c-0.26,1.1,0.48,2.22,1.64,2.49l0.74,0.17c-0.65,0.37-1.44,0.5-2.24,0.32c-1.63-0.38-2.65-1.94-2.29-3.49
								C690.33,283.57,691.94,282.63,693.57,283.01z"/>
							<path class="st26" d="M692.13,285.62L692.13,285.62c0.26-1.1,1.42-1.78,2.57-1.51l0.74,0.17l9.02,2.11
								c1.16,0.27,1.89,1.39,1.64,2.49l0,0c-0.26,1.1-1.42,1.78-2.57,1.51l-9.02-2.11l-0.74-0.17
								C692.61,287.84,691.87,286.72,692.13,285.62z"/>
						</g>
						<g>
							<path class="st25" d="M691.48,292.31c0.8,0.19,1.46,0.66,1.87,1.28l-0.74-0.17c-1.16-0.27-2.32,0.41-2.57,1.51l0,0
								c-0.26,1.1,0.48,2.22,1.64,2.49l0.74,0.17c-0.65,0.37-1.44,0.5-2.24,0.32c-1.63-0.38-2.65-1.94-2.29-3.49
								C688.24,292.87,689.85,291.93,691.48,292.31z"/>
							<path class="st26" d="M690.04,294.92L690.04,294.92c0.26-1.1,1.42-1.78,2.57-1.51l0.74,0.17l9.02,2.11
								c1.16,0.27,1.89,1.39,1.64,2.49l0,0c-0.26,1.1-1.42,1.78-2.57,1.51l-9.02-2.11l-0.74-0.17
								C690.52,297.14,689.78,296.02,690.04,294.92z"/>
						</g>
						<g>
							<path class="st25" d="M689.39,301.61c0.8,0.19,1.46,0.66,1.87,1.28l-0.74-0.17c-1.16-0.27-2.32,0.41-2.57,1.51l0,0
								c-0.26,1.1,0.48,2.22,1.64,2.49l0.74,0.17c-0.65,0.37-1.44,0.5-2.24,0.32c-1.63-0.38-2.65-1.94-2.29-3.49
								C686.15,302.17,687.76,301.23,689.39,301.61z"/>
							<path class="st26" d="M687.94,304.22L687.94,304.22c0.26-1.1,1.42-1.78,2.57-1.51l0.74,0.17l9.02,2.11
								c1.16,0.27,1.89,1.39,1.64,2.49l0,0c-0.26,1.1-1.42,1.78-2.57,1.51l-9.02-2.11l-0.74-0.17
								C688.42,306.44,687.69,305.32,687.94,304.22z"/>
						</g>
						<g>
							<path class="st25" d="M687.3,310.91c0.8,0.19,1.46,0.66,1.87,1.28l-0.74-0.17c-1.16-0.27-2.32,0.41-2.57,1.51l0,0
								c-0.26,1.1,0.48,2.22,1.64,2.49l0.74,0.17c-0.65,0.37-1.44,0.5-2.24,0.32c-1.63-0.38-2.65-1.94-2.29-3.49
								S685.67,310.53,687.3,310.91z"/>
							<path class="st26" d="M685.85,313.52L685.85,313.52c0.26-1.1,1.42-1.78,2.57-1.51l0.74,0.17l9.02,2.11
								c1.16,0.27,1.89,1.39,1.64,2.49l0,0c-0.26,1.1-1.42,1.78-2.57,1.51l-9.02-2.11l-0.74-0.17
								C686.33,315.74,685.6,314.62,685.85,313.52z"/>
						</g>
						<g>
							<path class="st25" d="M685.21,320.2c0.8,0.19,1.46,0.66,1.87,1.28l-0.74-0.17c-1.16-0.27-2.32,0.41-2.57,1.51l0,0
								c-0.26,1.1,0.48,2.22,1.64,2.49l0.74,0.17c-0.65,0.37-1.44,0.5-2.24,0.32c-1.63-0.38-2.65-1.94-2.29-3.49
								C681.97,320.77,683.58,319.82,685.21,320.2z"/>
							<path class="st26" d="M683.76,322.82L683.76,322.82c0.26-1.1,1.42-1.78,2.57-1.51l0.74,0.17l9.02,2.11
								c1.16,0.27,1.89,1.39,1.64,2.49l0,0c-0.26,1.1-1.42,1.78-2.57,1.51l-9.02-2.11l-0.74-0.17
								C684.24,325.04,683.5,323.91,683.76,322.82z"/>
						</g>
						<g>
							<path class="st25" d="M683.12,329.5c0.8,0.19,1.46,0.66,1.87,1.28l-0.74-0.17c-1.16-0.27-2.32,0.41-2.57,1.51
								c-0.26,1.1,0.48,2.22,1.64,2.49l0.74,0.17c-0.65,0.37-1.44,0.5-2.24,0.32c-1.63-0.38-2.65-1.94-2.29-3.49
								C679.88,330.06,681.49,329.12,683.12,329.5z"/>
							<path class="st26" d="M681.67,332.11c0.26-1.1,1.42-1.78,2.57-1.51l0.74,0.17l9.02,2.11c1.16,0.27,1.89,1.39,1.64,2.49
								c-0.26,1.1-1.42,1.78-2.57,1.51l-9.02-2.11l-0.74-0.17C682.15,334.33,681.41,333.21,681.67,332.11z"/>
						</g>
					</g>
					<g>
						<path class="st24" d="M725,137.88c-0.26,1.1,0.48,2.22,1.63,2.49l6.9,1.62l0.94-4l-6.9-1.62c-0.58-0.13-1.15-0.04-1.62,0.24
							C725.48,136.88,725.13,137.33,725,137.88z"/>
						<path class="st24" d="M722.91,147.17c-0.26,1.1,0.48,2.22,1.64,2.49l6.81,1.6l0.94-4l-6.81-1.6
							c-0.58-0.14-1.16-0.03-1.62,0.24C723.39,146.18,723.04,146.62,722.91,147.17z"/>
						<path class="st24" d="M729.19,160.54l-6.73-1.58c-1.16-0.27-1.9-1.39-1.64-2.49c0.13-0.55,0.48-0.99,0.95-1.27
							c0.46-0.27,1.04-0.37,1.62-0.24l6.73,1.58L729.19,160.54z"/>
						<path class="st24" d="M718.73,165.77c-0.26,1.1,0.48,2.22,1.63,2.49l6.65,1.56l0.94-4l-6.65-1.56
							c-0.58-0.14-1.16-0.03-1.62,0.24C719.21,164.77,718.86,165.21,718.73,165.77z"/>
						<path class="st24" d="M716.63,175.06c-0.26,1.1,0.48,2.22,1.64,2.49l6.57,1.54l0.94-4l-6.57-1.54
							c-0.58-0.14-1.16-0.03-1.62,0.24C717.12,174.07,716.76,174.51,716.63,175.06z"/>
						<path class="st24" d="M714.55,184.36c-0.26,1.1,0.48,2.22,1.63,2.49l6.49,1.52l0.94-4l-6.49-1.52
							c-0.58-0.14-1.16-0.03-1.62,0.24C715.03,183.37,714.68,183.81,714.55,184.36z"/>
						<path class="st24" d="M712.45,193.66c-0.26,1.1,0.48,2.22,1.64,2.49l6.4,1.5l0.94-4l-6.4-1.5c-0.58-0.14-1.16-0.03-1.62,0.24
							C712.94,192.67,712.58,193.11,712.45,193.66z"/>
						<g>
							<path class="st24" d="M710.36,202.96c-0.26,1.1,0.48,2.22,1.63,2.49l6.32,1.48l0.94-4l-6.32-1.48
								C711.78,201.18,710.62,201.86,710.36,202.96z"/>
						</g>
					</g>
					<g>
						<g>
							<path class="st25" d="M727.6,139.59c-0.65,0.37-1.44,0.5-2.24,0.32c-1.63-0.38-2.65-1.94-2.29-3.49
								c0.36-1.54,1.97-2.49,3.6-2.11c0.8,0.19,1.46,0.66,1.87,1.28l-0.74-0.17c-1.16-0.27-2.32,0.41-2.57,1.51l0,0
								c-0.26,1.1,0.48,2.22,1.64,2.49L727.6,139.59z"/>
							<path class="st26" d="M736.62,141.71l-9.02-2.11l-0.74-0.17c-1.16-0.27-1.89-1.39-1.64-2.49l0,0
								c0.26-1.1,1.42-1.78,2.57-1.51l0.74,0.17l9.02,2.11c1.16,0.27,1.89,1.39,1.64,2.49l0,0
								C738.93,141.3,737.77,141.98,736.62,141.71z"/>
						</g>
						<g>
							<path class="st25" d="M725.51,148.89c-0.65,0.37-1.44,0.5-2.24,0.32c-1.63-0.38-2.65-1.94-2.29-3.49
								c0.36-1.54,1.97-2.49,3.6-2.11c0.8,0.19,1.46,0.66,1.87,1.28l-0.74-0.17c-1.16-0.27-2.32,0.41-2.57,1.51l0,0
								c-0.26,1.1,0.48,2.22,1.64,2.49L725.51,148.89z"/>
							<path class="st26" d="M734.53,151l-9.02-2.11l-0.74-0.17c-1.16-0.27-1.89-1.39-1.64-2.49l0,0c0.26-1.1,1.42-1.78,2.57-1.51
								l0.74,0.17l9.02,2.11c1.16,0.27,1.89,1.39,1.64,2.49l0,0C736.84,150.6,735.68,151.28,734.53,151z"/>
						</g>
						<g>
							<path class="st25" d="M723.42,158.19c-0.65,0.37-1.44,0.5-2.24,0.32c-1.63-0.38-2.65-1.94-2.29-3.49
								c0.36-1.54,1.97-2.49,3.6-2.11c0.8,0.19,1.46,0.66,1.87,1.28l-0.74-0.17c-1.16-0.27-2.32,0.41-2.57,1.51l0,0
								c-0.26,1.1,0.48,2.22,1.64,2.49L723.42,158.19z"/>
							<path class="st26" d="M732.43,160.3l-9.02-2.11l-0.74-0.17c-1.16-0.27-1.89-1.39-1.64-2.49l0,0c0.26-1.1,1.42-1.78,2.57-1.51
								l0.74,0.17l9.02,2.11c1.16,0.27,1.89,1.39,1.64,2.49l0,0C734.75,159.9,733.59,160.57,732.43,160.3z"/>
						</g>
						<g>
							<path class="st25" d="M721.33,167.49c-0.65,0.37-1.44,0.5-2.24,0.32c-1.63-0.38-2.65-1.94-2.29-3.49
								c0.36-1.54,1.97-2.49,3.6-2.11c0.8,0.19,1.46,0.66,1.87,1.28l-0.74-0.17c-1.16-0.27-2.32,0.41-2.57,1.51l0,0
								c-0.26,1.1,0.48,2.22,1.64,2.49L721.33,167.49z"/>
							<path class="st26" d="M730.34,169.6l-9.02-2.11l-0.74-0.17c-1.16-0.27-1.89-1.39-1.64-2.49l0,0c0.26-1.1,1.42-1.78,2.57-1.51
								l0.74,0.17l9.02,2.11c1.16,0.27,1.89,1.39,1.64,2.49l0,0C732.66,169.19,731.5,169.87,730.34,169.6z"/>
						</g>
						<g>
							<path class="st25" d="M719.24,176.79c-0.65,0.37-1.44,0.5-2.24,0.32c-1.63-0.38-2.65-1.94-2.29-3.49
								c0.36-1.54,1.97-2.49,3.6-2.11c0.8,0.19,1.46,0.66,1.87,1.28l-0.74-0.17c-1.16-0.27-2.32,0.41-2.57,1.51l0,0
								c-0.26,1.1,0.48,2.22,1.64,2.49L719.24,176.79z"/>
							<path class="st26" d="M728.25,178.9l-9.02-2.11l-0.74-0.17c-1.16-0.27-1.89-1.39-1.64-2.49l0,0c0.26-1.1,1.42-1.78,2.57-1.51
								l0.74,0.17l9.02,2.11c1.16,0.27,1.89,1.39,1.64,2.49l0,0C730.57,178.49,729.41,179.17,728.25,178.9z"/>
						</g>
						<g>
							<path class="st25" d="M717.14,186.08c-0.65,0.37-1.44,0.5-2.24,0.32c-1.63-0.38-2.65-1.94-2.29-3.49
								c0.36-1.54,1.97-2.49,3.6-2.11c0.8,0.19,1.46,0.66,1.87,1.28l-0.74-0.17c-1.16-0.27-2.32,0.41-2.57,1.51l0,0
								c-0.26,1.1,0.48,2.22,1.64,2.49L717.14,186.08z"/>
							<path class="st26" d="M726.16,188.2l-9.02-2.11l-0.74-0.17c-1.16-0.27-1.89-1.39-1.64-2.49l0,0c0.26-1.1,1.42-1.78,2.57-1.51
								l0.74,0.17l9.02,2.11c1.16,0.27,1.89,1.39,1.64,2.49l0,0C728.48,187.79,727.32,188.47,726.16,188.2z"/>
						</g>
						<g>
							<path class="st25" d="M715.05,195.38c-0.65,0.37-1.44,0.5-2.24,0.32c-1.63-0.38-2.65-1.94-2.29-3.49
								c0.36-1.54,1.97-2.49,3.6-2.11c0.8,0.19,1.46,0.66,1.87,1.28l-0.74-0.17c-1.16-0.27-2.32,0.41-2.57,1.51l0,0
								c-0.26,1.1,0.48,2.22,1.64,2.49L715.05,195.38z"/>
							<path class="st26" d="M724.07,197.49l-9.02-2.11l-0.74-0.17c-1.16-0.27-1.89-1.39-1.64-2.49l0,0
								c0.26-1.1,1.42-1.78,2.57-1.51l0.74,0.17l9.02,2.11c1.16,0.27,1.89,1.39,1.64,2.49l0,0
								C726.39,197.09,725.23,197.77,724.07,197.49z"/>
						</g>
						<g>
							<path class="st25" d="M712.03,199.4c0.8,0.19,1.46,0.66,1.87,1.28l-0.74-0.17c-1.16-0.27-2.32,0.41-2.57,1.51
								c-0.26,1.1,0.48,2.22,1.64,2.49l0.74,0.17c-0.65,0.37-1.44,0.5-2.24,0.32c-1.63-0.38-2.65-1.94-2.29-3.49
								C708.79,199.96,710.4,199.02,712.03,199.4z"/>
							<path class="st26" d="M710.58,202.01c0.26-1.1,1.42-1.78,2.57-1.51l0.74,0.17l9.02,2.11c1.16,0.27,1.89,1.39,1.64,2.49
								s-1.42,1.78-2.57,1.51l-9.02-2.11l-0.74-0.17C711.06,204.23,710.33,203.11,710.58,202.01z"/>
						</g>
					</g>
					<g class="st27">
						<line class="st28" x1="712.74" y1="136.65" x2="628.38" y2="116.89"/>
						<line class="st28" x1="709.33" y1="150.96" x2="624.97" y2="131.21"/>
						<line class="st28" x1="705.92" y1="165.28" x2="621.56" y2="145.53"/>
						<line class="st28" x1="702.51" y1="179.6" x2="618.15" y2="159.85"/>
						<line class="st28" x1="699.1" y1="193.92" x2="614.74" y2="174.17"/>
						<line class="st28" x1="695.68" y1="208.24" x2="611.33" y2="188.48"/>
						<line class="st28" x1="692.27" y1="222.55" x2="607.92" y2="202.8"/>
						<line class="st28" x1="688.86" y1="236.87" x2="604.51" y2="217.12"/>
						<line class="st28" x1="685.45" y1="251.19" x2="601.1" y2="231.44"/>
						<line class="st28" x1="682.04" y1="265.51" x2="597.69" y2="245.75"/>
						<line class="st28" x1="678.63" y1="279.83" x2="594.28" y2="260.07"/>
						<line class="st28" x1="675.22" y1="294.14" x2="590.87" y2="274.39"/>
						<line class="st28" x1="671.81" y1="308.46" x2="587.46" y2="288.71"/>
						<line class="st28" x1="668.4" y1="322.78" x2="584.04" y2="303.03"/>
					</g>
				</g>
			</g>
			<path class="st30" d="M848.92,153.33l-32.56-7.57l2.94-12.66c0.53-2.3,2.83-3.73,5.13-3.19l24.24,5.63
				c2.3,0.53,3.73,2.83,3.19,5.13L848.92,153.33z"/>
			<path class="st31" d="M721.9,123.81l-32.56-7.57l2.94-12.66c0.53-2.3,2.83-3.73,5.13-3.19l24.24,5.63
				c2.3,0.53,3.73,2.83,3.19,5.13L721.9,123.81z"/>
			<path class="st32" d="M666.22,110.88l-32.56-7.57l2.25-9.68c0.53-2.3,2.83-3.73,5.13-3.19l24.24,5.63
				c2.3,0.53,3.73,2.83,3.19,5.13L666.22,110.88z"/>
			<path class="st33" d="M814.37,145.3l-32.56-7.57l2.25-9.68c0.53-2.3,2.83-3.73,5.13-3.19l24.24,5.63
				c2.3,0.53,3.73,2.83,3.19,5.13L814.37,145.3z"/>
		</g>
	</g>
</g>
<g>
	<g>
		<path class="st34" d="M782.38,223.7l-3.08,4.04l-9.27,12.16l0,0l-54.56,127.79c-0.42,0.23-0.77,0.58-0.97,1.06l-3.16,7.4
			c-0.3,0.7-0.2,1.48,0.19,2.06l-2.03,4.75c-1.14,2.66,0.05,5.74,2.64,6.85l0.92,0.39c2.59,1.11,5.64-0.17,6.77-2.83l2.03-4.75
			c0.69-0.12,1.32-0.59,1.62-1.29l3.16-7.4c0.2-0.47,0.22-0.97,0.09-1.43l54.56-127.79l0,0l2.46-15.68
			c0.03-0.02,0.06-0.04,0.09-0.06l0.68-4.36c0.1-0.62-0.25-1.09-0.72-1.27C783.34,223.13,782.76,223.2,782.38,223.7z"/>
		<g>
			<path class="st35" d="M717.64,378.18l-4.38,10.27c-1.01,2.38-3.79,3.49-6.17,2.48l-1.69-0.72c-2.38-1.01-3.49-3.79-2.48-6.17
				l4.38-10.27c1.01-2.38,3.79-3.49,6.17-2.48l1.69,0.72C717.54,373.03,718.66,375.8,717.64,378.18z"/>
			
				<rect x="669.29" y="302.8" transform="matrix(0.3926 -0.9197 0.9197 0.3926 166.0092 869.2098)" class="st36" width="143.63" height="12.23"/>
			<path class="st37" d="M776.03,224.26l-3.08,4.04l-9.27,12.16l11.25,4.8l2.47-15.77l0.68-4.36
				C778.28,223.93,776.77,223.29,776.03,224.26z"/>
			<path class="st38" d="M776.1,224.3l-3.08,4.04l4.46,1.19l0.68-4.36C778.35,223.96,776.84,223.32,776.1,224.3z"/>
			<path class="st39" d="M720.28,374.49l-3.16,7.4c-0.47,1.1-1.72,1.62-2.79,1.16c-3.35-1.43-5.12-2.18-8.26-3.53
				c-1.07-0.46-1.56-1.72-1.09-2.82l3.16-7.4c0.47-1.1,0.81-2.01,1.5-1.71c3.34,1.42,7.97,3.4,10.82,4.62
				C720.78,372.09,720.75,373.39,720.28,374.49z"/>
			<line class="st40" x1="713.09" y1="367" x2="764.96" y2="245.5"/>
			<line class="st41" x1="705.38" y1="385.06" x2="705.68" y2="384.35"/>
		</g>
		
			<rect x="710.69" y="365.5" transform="matrix(0.3926 -0.9197 0.9197 0.3926 92.0927 882.6741)" class="st42" width="7.29" height="12.23"/>
	</g>
	<path class="st43" d="M720.28,374.48l-3.16,7.4c-0.47,1.1-1.72,1.62-2.79,1.16l-8.26-3.53c-1.06-0.45-1.56-1.72-1.09-2.82l3.16-7.4
		c0.47-1.09,0.81-2.01,1.5-1.71l10.82,4.62C720.78,372.09,720.75,373.39,720.28,374.48z"/>
	<path class="st44" d="M713.37,370.11c0.17,0.24,0.07,1.31-0.32,2.22l-2.49,5.83c-0.47,1.1-1.72,1.62-2.79,1.16l-0.39-0.16
		c-1.06-0.45-1.56-1.72-1.09-2.82l2.49-5.82c0.47-1.09,0.81-2.01,1.5-1.71l2.94,1.26C713.29,370.04,713.34,370.06,713.37,370.11z"/>
</g>
<g>
	<path class="st45" d="M370.08,663.11l6.72-14.73l-2.16-8.7l5.9-8.26l-11.21-0.45c-2.17,1.35-3.94,0.06-5-2.21
		c-0.77-1.92-0.73-4.91-3.06-6.24c-4.6-2.52-5.97-1.41-9.9,1.57c-2.24,2.74-4.28,0.64-3.59,0c-0.02-0.34-1.54-0.28-1.66-0.67
		c-0.59-2.17-1.14-4.49-3.57-5.88c-4.02-2.31-5.71-1.95-9.14,0.65c-2.06,1.84-2.39-0.98-2.39-0.98s-2.9,2.06-3.35,1.47
		c-0.56-0.99,0.05-3.34-1.12-4.07c-1.24-0.58-2.26-0.96-3.09-1.14c-1.27-0.16-2.52,0.02-3.75,0.53c-0.47,0.16-0.94,0.43-1.44,0.8
		c-0.51,0.31,0.14-0.17-0.51,0.31l-22.93,45.33c-3.09,8.47-2.42,13.3,0.03,19.06c-5.07,7.88-9.11,15.72-14.49,23.51
		c-1.65,2.4-6.35,4.11-8.06,6.5c-10.25,14.59-14.02,32.54-25.31,46.81l30.88,7.23l40.87-31.11l6.89-14.82l12.27-19
		c2.71,1,9.59-0.44,14.37-3l27.2-16.84L370.08,663.11z"/>
	<path class="st46" d="M410,598.72c-22.25,15.46-31.6,29.94-43.41,51.07"/>
	<path class="st46" d="M375,585.3c-26.25,12.5-45.15,51.24-39.9,56.01"/>
	<path class="st47" d="M348,588.23c-6.1,3.54-12.67,8.41-17.04,14.25c-7.64,10.23-8.5,22.2-13.29,35.96"/>
	<path class="st46" d="M398,587.3c-22.24,12.73-36.91,31.93-48.54,55.47"/>
	<polyline class="st48" points="365.02,676.76 394.34,661.56 406.41,642.47 	"/>
	<polygon class="st49" points="320,727.3 279,706.3 287.82,691.3 329,712.3 	"/>
	<g>
		<polygon class="st50" points="210.34,824.01 264.55,851.41 275.44,856.92 341.67,725.89 330.79,720.38 276.58,692.98 		"/>
		<polygon class="st5" points="210.34,824.01 264.55,851.41 330.79,720.38 274.01,691.68 		"/>
		<polygon class="st51" points="332.27,750.47 255.61,900 166.88,900 262.64,715.27 278.53,723.31 314.02,741.25 		"/>
		<polygon class="st52" points="314.02,741.25 231.5,900 167.09,900 262.64,715.27 278.53,723.31 		"/>
	</g>
</g>
<g>
	<path class="st6" d="M827.82,476.88l-58.67-27.47c-4.94-2.31-8.1,0.17-9.66,3.13l-0.81,1.62c-0.06,0.13-0.13,0.25-0.19,0.38
		L705.51,559.1l-2.75,5.54c-0.06,0.29-0.15,0.56-0.28,0.81c-0.26,1.52-0.19,2.77,0.23,3.76c0.32,1.01,0.96,1.78,1.93,2.31
		l62.29,29.17c2.46,1,4.62-0.15,6.5-3.43l-0.52,1.05c0.26-0.35,0.46-0.69,0.62-1l2.56-5.16l52.65-103.89
		c0.13-0.25,0.21-0.41,0.24-0.48l0.99-2.01C831.44,482.47,832.59,479.12,827.82,476.88z"/>
	<g>
		<path class="st53" d="M700.25,550.93c-1.01,3.69-0.4,6.09,1.83,7.21l62.29,29.17c2.36,1.03,4.51-0.09,6.45-3.34l-2.56,5.16
			c-0.16,0.32-0.37,0.65-0.62,1l0.52-1.05c-1.87,3.28-4.04,4.43-6.5,3.43l-62.29-29.17c-0.97-0.53-1.61-1.3-1.93-2.31
			c-0.42-0.98-0.49-2.23-0.23-3.76c0.13-0.26,0.22-0.52,0.28-0.81L700.25,550.93z"/>
		<path class="st54" d="M739.56,559.21c0.07,0.03,0.13,0.06,0.2,0.09l0.5,0.23c1.37,0.72,2.33,1.68,2.88,2.88
			c0.65,1.33,0.68,2.6,0.08,3.8c-0.63,1.27-1.69,2.08-3.16,2.4c-1.31,0.33-2.68,0.2-4.11-0.4l-0.5-0.23
			c-0.07-0.03-0.13-0.06-0.2-0.09c-1.07-0.66-1.86-1.54-2.38-2.64c-0.59-1.3-0.57-2.58,0.07-3.85c0.47-0.96,1.18-1.64,2.13-2.06
			c0.23-0.13,0.52-0.23,0.88-0.29C737.16,558.76,738.36,558.81,739.56,559.21z"/>
		<path class="st55" d="M759.2,452.93l55.8,26.13l-44.84,88.13l-55.8-26.13L759.2,452.93z"/>
		<path class="st56" d="M790.8,461.14c0.26,0.28,0.43,0.44,0.5,0.47c-0.33-0.16-0.63-0.3-0.9-0.42
			C790.47,461.06,790.6,461.04,790.8,461.14z M801.97,465.66l2.9,1.36"/>
		<line class="st57" x1="799.17" y1="464.35" x2="779.11" y2="454.96"/>
		<path class="st58" d="M770.82,583.97c-1.94,3.25-4.09,4.36-6.45,3.34l-62.29-29.17c-2.23-1.12-2.84-3.53-1.83-7.21l52.98-104.56
			c0.06-0.13,0.13-0.26,0.19-0.38l0.81-1.62c1.55-2.96,4.72-5.44,9.66-3.13l58.67,27.47c4.77,2.24,3.63,5.58,2.15,8.89l-0.99,2.01
			c-0.03,0.06-0.11,0.22-0.24,0.48L770.82,583.97z M790.8,461.14c0.26,0.28,0.43,0.44,0.5,0.47c-0.33-0.16-0.63-0.3-0.9-0.42
			C790.47,461.06,790.6,461.04,790.8,461.14c-0.2-0.09-0.33-0.08-0.4,0.05c0.27,0.12,0.57,0.26,0.9,0.42
			C791.23,461.57,791.07,461.42,790.8,461.14z M801.97,465.66l2.9,1.36L801.97,465.66z M759.2,452.93l-44.84,88.13l55.8,26.13
			L815,479.06L759.2,452.93z M799.17,464.35l-20.06-9.39L799.17,464.35z M739.56,559.21c-1.2-0.4-2.4-0.46-3.61-0.16
			c-0.36,0.07-0.66,0.17-0.88,0.29c-0.95,0.42-1.65,1.11-2.13,2.06c-0.63,1.27-0.65,2.56-0.07,3.85c0.52,1.1,1.31,1.99,2.38,2.64
			c0.07,0.03,0.13,0.06,0.2,0.09l0.5,0.23c1.43,0.59,2.8,0.72,4.11,0.4c1.48-0.33,2.53-1.13,3.16-2.4c0.6-1.21,0.57-2.48-0.08-3.8
			c-0.55-1.2-1.51-2.16-2.88-2.88l-0.5-0.23C739.69,559.27,739.62,559.24,739.56,559.21z"/>
		<path class="st59" d="M814.86,496.91l-8.1,16.33l-107.61,41.65l7.34-14.81L814.86,496.91z M710.32,532.35l24.2-48.81l60.68-27.61
			l26.67,12.46c3.16,1.18,4.73,3.22,3.9,6.55l-7.03,14.67L710.32,532.35z"/>
	</g>
</g>
<g>
	<polygon class="st6" points="112.37,536.27 108.88,535.41 108.31,537.74 104.82,536.88 56.02,735.62 146.67,757.88 195.48,559.14 
		193.15,558.57 207.99,498.13 206.83,497.85 127.8,478.44 126.64,478.16 	"/>
	
		<rect x="116.62" y="475.12" transform="matrix(0.2385 -0.9711 0.9711 0.2385 -384.9055 541.9536)" class="st60" width="73" height="82.57"/>
	
		<rect x="113.71" y="472.61" transform="matrix(0.2385 -0.9711 0.9711 0.2385 -386.4252 538.5886)" class="st17" width="73" height="86.16"/>
	<path class="st61" d="M112.96,526.88L182.69,544L112.96,526.88z"/>
	<path class="st61" d="M115.81,515.26l69.73,17.12L115.81,515.26z"/>
	<path class="st61" d="M118.67,503.63l69.73,17.12L118.67,503.63z"/>
	<path class="st61" d="M121.24,493.17l69.73,17.12L121.24,493.17z"/>
	
		<rect x="17.35" y="593.38" transform="matrix(0.2385 -0.9711 0.9711 0.2385 -530.4481 603.6329)" class="st62" width="204.64" height="93.35"/>
	<polygon class="st63" points="119.67,640.05 98.75,529.55 49.95,728.29 	"/>
	<polygon class="st63" points="119.67,640.05 189.4,551.81 140.6,750.55 	"/>
	
		<rect x="143.16" y="496.44" transform="matrix(0.2385 -0.9711 0.9711 0.2385 -414.0184 551.0459)" class="st64" width="2.39" height="86.16"/>
</g>
<g>
	<g>
		<path class="st20" d="M207.24,704.56l0.25,0.65c-0.45,1.27,0.84,3.61,3.78,7.89l12.57,19.7c0.11,0.16,0.27,0.28,0.44,0.36
			l2.07,5.27c0.34,0.87,1.33,1.3,2.2,0.96c0.87-0.34,1.3-1.33,0.96-2.2l-2.07-5.27c0.07-0.17,0.1-0.37,0.07-0.56l-4.22-22.98
			c-0.84-5.62-1.54-8.2-2.96-8.48c0.21-0.8,0.18-1.66-0.14-2.48l-58.03-147.52l3.42-1.35l14.15,35.96l-0.4,0.16
			c-0.49,0.19-0.74,0.76-0.54,1.25l1.25,3.17c0.19,0.49,0.76,0.74,1.25,0.54l0.4-0.16l1.53-0.6l1.08-0.43
			c0.57-0.22,0.85-0.87,0.63-1.44l-16.79-42.68l-1.86-4.72l-4.62-11.75c-0.6-1.53-2.35-2.3-3.89-1.69l-4.28,1.68l-0.69-1.74
			c-0.58-1.47-1.93-2.4-3.41-2.53l-3.09-7.85c-1.08-2.74-4.17-4.09-6.91-3.01c-2.74,1.08-4.09,4.17-3.01,6.91l3.09,7.85
			c-0.99,1.11-1.35,2.71-0.77,4.18l67.39,171.31C206.33,703.61,206.74,704.14,207.24,704.56z"/>
		<g>
			<path class="st65" d="M145.13,548.33l-9-22.87L145.13,548.33z"/>
			<path class="st66" d="M146.52,536.33l6.84-2.69c1.09-0.43,2.34,0.11,2.77,1.21l7.11,18.07c0.43,1.09-0.11,2.34-1.21,2.77
				l-6.84,2.69c-1.09,0.43-2.34-0.11-2.77-1.21l-7.11-18.07C144.88,538.01,145.43,536.76,146.52,536.33z"/>
			<path class="st66" d="M157.74,547.5l2.17-0.86c0.41-0.16,0.87,0.04,1.03,0.45l18.88,47.99c0.16,0.41-0.04,0.87-0.45,1.03
				l-2.91,1.15l-19.17-48.73C157.14,548.13,157.34,547.66,157.74,547.5z"/>
			<path class="st66" d="M173.86,592.55l2.44-0.96c0.35-0.14,0.75,0.04,0.89,0.39l1.45,3.68c0.14,0.35-0.04,0.75-0.39,0.89
				l-2.44,0.96c-0.35,0.14-0.75-0.04-0.89-0.39l-1.45-3.68C173.33,593.09,173.51,592.69,173.86,592.55z"/>
			<path class="st67" d="M134.69,534.62l8.73-3.43c1.48-0.58,3.16,0.15,3.74,1.63l68.24,173.47c0.58,1.48-0.15,3.16-1.63,3.74
				l-8.73,3.43c-1.48,0.58-3.16-0.15-3.74-1.63l-68.24-173.47C132.48,536.88,133.21,535.2,134.69,534.62z"/>
			<line class="st68" x1="140.15" y1="542.13" x2="202.61" y2="702.64"/>
			<line class="st69" x1="135.88" y1="532.19" x2="133.09" y2="525.1"/>
		</g>
	</g>
	<path class="st70" d="M212.69,710.45l-6.57,2.58c-2.07,0.81-4.43-0.21-5.25-2.29l-1.23-3.13c0.29,0.73,1.12,1.09,1.85,0.8
		l11.45-4.5c0.73-0.29,1.09-1.12,0.8-1.85l1.23,3.13C215.79,707.27,214.76,709.63,212.69,710.45z"/>
	<line class="st71" x1="218.15" y1="733.97" x2="222.28" y2="744.48"/>
	<path class="st67" d="M202.88,710.93l10.75-4.23c2.16-0.85,2.99,1.48,4.01,8.34l4.22,22.98c0.07,0.49-0.19,0.97-0.57,1.12
		l-1.91,0.75c-0.38,0.15-0.9-0.02-1.18-0.43l-12.57-19.7C201.7,714.05,200.72,711.78,202.88,710.93z"/>
	<line class="st72" x1="204.83" y1="713.21" x2="219.52" y2="737.45"/>
</g>
<g>
	<g>
		<polyline class="st73" points="742.31,740.62 752.02,690.66 844.38,601.14 		"/>
		<polyline class="st73" points="879,620.4 827.53,624.25 726.81,704.55 		"/>
		
			<ellipse transform="matrix(0.7645 -0.6446 0.6446 0.7645 -269.0009 650.9064)" class="st74" cx="756.44" cy="693.66" rx="35.22" ry="27.02"/>
		
			<ellipse transform="matrix(0.7645 -0.6446 0.6446 0.7645 -210.4574 682.8254)" class="st74" cx="829.41" cy="629.48" rx="35.22" ry="27.02"/>
		
			<ellipse transform="matrix(0.7645 -0.6446 0.6446 0.7645 -269.0009 650.9064)" class="st75" cx="756.44" cy="693.66" rx="35.22" ry="27.02"/>
		
			<ellipse transform="matrix(0.7645 -0.6446 0.6446 0.7645 -210.4574 682.8254)" class="st75" cx="829.41" cy="629.48" rx="35.22" ry="27.02"/>
		<path class="st76" d="M807.02,653.29c-16.07-2.66-24.58,3.85-24.14,21.23l-14.02-13.59c10.35-4.53,20.31-13.29,26.05-22.92
			L807.02,653.29z"/>
	</g>
	<g>
		<polyline class="st77" points="735.83,729.92 745.53,679.97 837.9,590.45 		"/>
		<polyline class="st77" points="872.51,609.7 821.05,613.55 720.33,693.85 		"/>
		
			<ellipse transform="matrix(0.7645 -0.6446 0.6446 0.7645 -263.6324 644.2034)" class="st78" cx="749.96" cy="682.96" rx="35.22" ry="27.02"/>
		
			<ellipse transform="matrix(0.7645 -0.6446 0.6446 0.7645 -205.089 676.1261)" class="st78" cx="822.92" cy="618.78" rx="35.22" ry="27.02"/>
		
			<ellipse transform="matrix(0.7645 -0.6446 0.6446 0.7645 -263.6324 644.2034)" class="st79" cx="749.96" cy="682.96" rx="35.22" ry="27.02"/>
		<path class="st79" d="M841.07,638.82c-1.66,1.47-3.4,2.79-5.19,3.93c-6.51,4.29-13.65,6.54-20.29,6.71
			c-7.51,0.22-14.41-2.22-19.11-7.42c-10.02-11.06-6.3-30.44,8.31-43.29c3.39-2.97,7.05-5.34,10.81-7.06
			c6.82-3.16,13.96-4.26,20.29-3.22c5.28,0.86,9.99,3.2,13.49,7.06C859.39,606.59,855.68,625.97,841.07,638.82z"/>
		<path class="st80" d="M800.53,642.59c-16.07-2.66-24.58,3.85-24.14,21.23l-14.02-13.59c10.35-4.53,20.31-13.29,26.05-22.92
			L800.53,642.59z"/>
	</g>
	<path class="st81" d="M835.88,584.71v62.06c-6.51,4.82-13.65,6.16-20.29,6.34v-64.78C822.41,584.78,829.55,583.54,835.88,584.71z"
		/>
</g>
<g>
	<ellipse class="st82" cx="357.62" cy="454.8" rx="40.95" ry="17.5"/>
	<path class="st83" d="M357.62,454.8l13.82,16.47c-4.43,0.68-9.11,1.03-13.82,1.03c-22.46,0-40.95-7.9-40.95-17.5
		s18.49-17.5,40.95-17.5s40.95,7.9,40.95,17.5c0,4.88-4.78,9.55-13.17,12.86L357.62,454.8z"/>
	<path class="st84" d="M357.62,454.8l13.82,16.47c-4.43,0.68-9.11,1.03-13.82,1.03c-22.46,0-40.95-7.9-40.95-17.5
		s18.49-17.5,40.95-17.5c6.94,0,13.76,0.75,19.83,2.19L357.62,454.8z"/>
	<path class="st85" d="M357.62,454.8l13.82,16.47c-4.43,0.68-9.11,1.03-13.82,1.03c-22.46,0-40.95-7.9-40.95-17.5
		c0-1.57,0.5-3.14,1.47-4.65L357.62,454.8z"/>
	<path class="st86" d="M357.62,454.8l13.82,16.47c-4.43,0.68-9.11,1.03-13.82,1.03c-7.14,0-14.16-0.8-20.36-2.32L357.62,454.8z"/>
</g>
<path class="st20" d="M574.11,643.61c-0.21,0.59-0.97,1.16-2.05,0.54c-8.57-12.18-17.98-22.02-28.41-29.69
	C556.01,619.35,567.39,632.89,574.11,643.61z M586.88,634.82c-0.12,0.7-0.5,1.49-1.65,0.62c-4.87-7.62-11.51-15.88-19.14-22.61
	c4.88,2.59,10.66,6.03,14.14,10.3C583.02,626.54,585.05,630.46,586.88,634.82z M662.18,724.75l-0.02,0.01l-5.25-7.96l-9.17-13.9
	l-10.14,6.98l-3.63-4.99l-0.25,0.18c-2.74-4.1-5.41-8.21-8.34-12.31c1.24-6.08,1.13-11.02-2.58-19.21l-22.9-39.18
	c-2.59-6.8-5.46-13.23-10.18-19.02c-5.12-6.25-12.77-10.7-18.87-13.88c-3-1.56-6.7-0.4-8.27,2.6c-1.02,1.96-0.87,4.21,0.17,5.97
	c-5.3-4.19-10.99-7.55-16.87-9.42c-3.63-1.15-7.51,0.86-8.66,4.49c-0.58,1.82-0.36,3.7,0.46,5.28c-2.68-1.7-5.41-3.29-8.22-4.72
	c-3.39-1.74-6.85-1.68-8.58,1.71c-1.74,3.39-1.1,8.82,2.29,10.56c13.99,7.17,26.2,18.18,37.06,33.4c-0.52,0.89-1.23,1.39-2.14,1.26
	c-9.12-12.87-19.11-23.75-35.35-34.09c-3.21-2.05-7.47-1.11-9.52,2.11c-2.05,3.21-1.1,7.47,2.11,9.52
	c18.11,11.53,27.39,23.64,38.01,40.09l-0.03,0.4l7.58,14.09l-0.32,0.94l-14.35-6.55l-11.27-16c-2.71-3.84-8.01-4.76-11.85-2.05
	c-3.84,2.7-4.76,8-2.05,11.84l12.59,17.88c0.87,1.23,2.05,2.21,3.42,2.84l21.63,9.87l21.38,11.98c4.3,2.04,10.19,2.71,12.3,1.41
	l10.19,14.19l1.31,2.03l-8.54,5.88l-10.04,6.92l14.85,21.56l-2.23,1.54l92.13,131h95.45L662.18,724.75z"/>
<g>
	<path class="st45" d="M552.38,685.23l29.22,13.03c5.08,1.89,12.08,2.39,14.64,1.04l14.71,17.17l8.82,13.75l44.68,25.33l29.63-11.32
		c-13.11-12.62-19.26-29.9-31.38-42.98c-2.02-2.14-6.9-3.2-8.86-5.35c-6.37-7-11.43-14.22-17.52-21.35
		c1.65-6.04,1.66-10.92-2.54-18.89l-28.82-41.83c-0.7-0.39,0,0-0.55-0.24c-0.54-0.3-1.05-0.5-1.53-0.6
		c-1.29-0.34-2.54-0.35-3.78-0.02c-0.8,0.29-1.76,0.81-2.91,1.55c-1.07,0.88-0.14,3.13-0.56,4.19c-0.37,0.65-3.52-1.01-3.52-1.01
		s0.05,2.85-2.24,1.3c-3.75-2.11-5.47-2.24-9.14,0.59c-2.22,1.7-2.45,4.08-2.75,6.31c-0.07,0.4-1.58,0.55-1.55,0.89
		c0.77,0.54-0.97,2.89-3.56,0.48c-4.29-2.42-5.8-3.34-10.02-0.23c-2.12,1.64-1.69,4.59-2.19,6.6c-0.75,2.4-2.33,3.91-4.66,2.87
		l-11.05,1.96l6.96,7.39l-0.97,8.91l8.64,13.7L552.38,685.23z"/>
	<path class="st46" d="M511.37,610c24.13,12.33,35.34,25.41,49.89,44.77"/>
	<path class="st46" d="M544.24,592c27.69,8.86,51.63,44.7,47.07,50.14"/>
	<path class="st47" d="M571.39,591.26c6.52,2.69,13.69,6.63,18.8,11.83c8.94,9.11,11.41,20.85,18,33.85"/>
	<path class="st46" d="M521.72,597.07c23.75,9.62,40.87,26.67,55.56,48.44"/>
	<polyline class="st48" points="566.44,681.29 535.34,670.17 520.82,652.87 	"/>
	<polygon class="st49" points="617.85,725.31 655.65,698.98 644.9,685.3 606.91,711.65 	"/>
	<g>
		<polygon class="st50" points="739.52,806.39 689.49,840.83 679.44,847.76 596.18,726.83 606.22,719.9 656.26,685.46 		"/>
		<polygon class="st5" points="739.52,806.39 689.49,840.83 606.22,719.9 658.63,683.83 		"/>
		<polygon class="st51" points="804.31,892.19 804.09,892.81 801.55,900 713.25,900 608.8,749.92 625.65,738.33 656.91,716.8 
			673.07,705.67 		"/>
		<polygon class="st52" points="809.13,900 738.66,900 625.65,738.33 656.91,716.8 673.07,705.67 804.09,892.81 		"/>
	</g>
</g>
<path class="st5" d="M425.57,167.82c-1.68-6.1-4.69-11.48-8.82-16.24c-2.17-2.5-6.44-2.22-8.66,0c-2.48,2.48-2.17,6.15,0,8.66
	c2.73,3.15,4.57,6.83,5.67,10.84C415.85,178.66,427.66,175.44,425.57,167.82z"/>
<path class="st5" d="M427.05,184.14c-7.88,0-7.89,12.25,0,12.25C434.93,196.38,434.94,184.14,427.05,184.14z"/>
<g>
	<g class="st87">
		<path class="st1" d="M200.71,393.89c3.82-2.3,5.05-7.26,2.75-11.08c-2.3-3.82-7.25-5.05-11.07-2.75l-9.39,5.6
			c-0.65-4.43-1.86-8.72-3.58-12.79l13.33-11.8c0.22-0.16,0.44-0.33,0.65-0.52l3.53-3.1l2.81-2.47c3.35-2.94,3.67-8.04,0.73-11.39
			c-2.94-3.35-8.04-3.67-11.39-0.73l-2.81,2.47l-3.53,3.1c-0.24,0.21-0.46,0.43-0.67,0.67l-8.89,7.98l-2.28,2.01
			c-0.83-0.97-1.7-1.9-2.6-2.81l6.16-9.41c0.33-0.34,0.63-0.72,0.9-1.13c2.45-3.72,1.41-8.73-2.32-11.17
			c-3.72-2.45-8.73-1.41-11.17,2.31c-0.05,0.08-0.09,0.16-0.14,0.24l-0.08-0.05l-6.18,9.44l2.77-9.83c0.12-0.28,0.22-0.57,0.3-0.87
			l1.27-4.52l1.01-3.6c1.21-4.29-1.29-8.74-5.58-9.95c-4.29-1.21-8.74,1.29-9.95,5.58l-1.01,3.6l-1.27,4.52l-2.85,10.14
			c-3.83-0.68-7.65-0.91-11.42-0.74l-1.38-24.05c0.02-0.3,0.02-0.61,0-0.92c-0.26-4.45-4.07-7.85-8.52-7.59
			c-4.45,0.26-7.85,4.07-7.59,8.52l1.57,27.28c-5.13,1.91-9.95,4.61-14.25,7.99l-2.35-6.12c-0.07-0.28-0.16-0.57-0.27-0.85
			c-1.59-4.16-6.25-6.25-10.41-4.66c-3.89,1.48-5.96,5.65-4.93,9.58l-0.05,0.02l0.3,0.77c0.01,0.02,0.01,0.03,0.02,0.05
			c0.01,0.02,0.02,0.03,0.02,0.05l5.62,14.61c-2.56,4.12-4.61,8.65-5.98,13.55c-0.64,2.26-1.1,4.53-1.42,6.79
			c-0.9,2.1-1.69,4.28-2.33,6.54c-7.85,27.9,8.41,56.89,36.31,64.74c27.9,7.85,56.89-8.41,64.74-36.31c0.64-2.26,1.1-4.53,1.42-6.79
			c0.9-2.1,1.69-4.28,2.33-6.54c0.25-0.88,0.47-1.77,0.67-2.65l17.6-10.5C200.16,394.19,200.44,394.05,200.71,393.89z"/>
	</g>
	<g>
		
			<ellipse transform="matrix(0.9874 -0.1581 0.1581 0.9874 -63.4625 25.3927)" class="st88" cx="127.91" cy="411.69" rx="54.5" ry="54.5"/>
		
			<ellipse transform="matrix(0.7071 -0.7071 0.7071 0.7071 -250.9935 208.9071)" class="st89" cx="126.68" cy="407.43" rx="52.49" ry="52.49"/>
		<g>
			<path class="st90" d="M174.55,393.59c0,4.6-0.66,9.06-1.87,13.27c-5.77,19.96-24.21,34.61-46,34.61
				c-21.79,0-40.24-14.65-46-34.61c-1.21-4.21-1.87-8.66-1.87-13.27c0-26.39,21.48-47.87,47.87-47.87
				C153.07,345.71,174.55,367.19,174.55,393.59z"/>
			<ellipse class="st91" cx="126.68" cy="406.85" rx="46" ry="34.61"/>
			<path class="st92" d="M107.09,406.77l1.9-18.18l9.11,2.57l8.8,11.27l24.39-5.77l-6.35,18.68l19.62,4.39l8.07-26.92l-8.27-26.53
				c0,0-26.72-22.88-27.49-23.65c-0.77-0.77-36.72,13.84-36.14,13.46c0.58-0.38-14.61,12.11-14.03,12.3
				c0.58,0.19-7.5,26.34-7.5,26.34l3.46,7.31l1.73,6.34L107.09,406.77z"/>
			<path class="st93" d="M126.68,341.1c-28,0-50.87,21.92-52.4,49.53c-0.06,0.98-0.09,1.97-0.09,2.96
				c0,28.98,23.5,52.48,52.49,52.48c25.43,0,46.63-18.09,51.45-42.09c0.68-3.36,1.03-6.83,1.03-10.39
				C179.16,364.6,155.67,341.1,126.68,341.1z M126.68,436.84c-23.85,0-43.26-19.4-43.26-43.25c0-23.86,19.41-43.26,43.26-43.26
				s43.26,19.4,43.26,43.26c0,3.83-0.5,7.54-1.44,11.08C163.6,423.17,146.7,436.84,126.68,436.84z"/>
			<path class="st94" d="M179.16,393.59c0,3.56-0.35,7.03-1.03,10.39l-0.46,0.71h-9l-0.17-0.02c0.94-3.54,1.44-7.25,1.44-11.08
				c0-23.86-19.41-43.26-43.26-43.26s-43.26,19.4-43.26,43.26l-9.14-2.96c1.53-27.61,24.4-49.53,52.4-49.53
				C155.67,341.1,179.16,364.6,179.16,393.59z"/>
		</g>
		<g>
			<rect x="121.43" y="326.13" class="st95" width="16.08" height="43.45"/>
			<path class="st5" d="M137.57,330.83c0,4.46-3.61,8.07-8.07,8.07c-4.46,0-8.07-3.61-8.07-8.07v-4.7h16.13V330.83z"/>
			<path class="st96" d="M137.57,326.13c0,4.46-3.61,8.07-8.07,8.07c-4.46,0-8.07-3.61-8.07-8.07v-3.74h16.13V326.13z"/>
			<path class="st97" d="M137.57,371.06c0,4.46-8.07,13.35-8.07,13.35s-8.07-8.89-8.07-13.35c0-4.46,3.61-8.07,8.07-8.07
				C133.96,362.99,137.57,366.6,137.57,371.06z"/>
			<circle class="st95" cx="129.5" cy="369.39" r="8.07"/>
			<circle class="st98" cx="129.5" cy="322.39" r="8.07"/>
			<path class="st92" d="M125.91,379.94c0,0,11.41-46.65,11.54-52.1v22.88L125.91,379.94z"/>
		</g>
		<g>
			<polygon class="st95" points="180.32,341.24 148.96,389.95 148.89,389.91 143.01,386.1 135.59,381.28 135.48,381.21 
				157.42,347.35 166.84,332.5 			"/>
			<path class="st5" d="M177.82,345.22c-2.42,3.74-7.42,4.81-11.16,2.38c-3.74-2.42-4.8-7.42-2.38-11.16l2.55-3.94l13.54,8.78
				L177.82,345.22z"/>
			<path class="st96" d="M180.37,341.27c-2.42,3.74-7.42,4.81-11.16,2.38c-3.74-2.42-4.8-7.42-2.38-11.16l2.04-3.14l13.54,8.78
				L180.37,341.27z"/>
			<path class="st97" d="M148.89,389.91c-0.18,0.46-0.42,0.9-0.69,1.33c-2.42,3.74-14.03,6.82-14.03,6.82l-0.02-0.12
				c-0.18-1.22-1.76-11.96,0.52-15.48c0.28-0.43,0.59-0.82,0.92-1.18c2.45-2.57,6.34-3.26,9.54-1.59c0.24,0.11,0.46,0.24,0.69,0.39
				C149.14,382.22,150.35,386.39,148.89,389.91z"/>
			
				<ellipse transform="matrix(0.226 -0.9741 0.9741 0.226 -265.2977 437.0116)" class="st95" cx="142.34" cy="385.45" rx="8.07" ry="8.07"/>
			<path class="st98" d="M182.41,338.13c-2.42,3.74-7.42,4.81-11.16,2.38c-3.74-2.42-4.8-7.42-2.38-11.16
				c2.42-3.74,7.42-4.81,11.16-2.38C183.77,329.39,184.83,334.39,182.41,338.13z"/>
		</g>
		<path class="st92" d="M157.42,347.35c-3.8,6.89-8.71,21.48-12.29,32.33c-0.78,2.35-1.49,4.53-2.12,6.41
			c-1.26,3.81-2.16,6.41-2.49,6.91c-1.35,1.93-6.34,5.04-6.34,5.04l-0.02-0.12c-0.18-1.22-1.76-11.96,0.52-15.48
			c0.28-0.43,0.59-0.82,0.92-1.18l-0.12-0.07L157.42,347.35z"/>
		<g>
			<polygon class="st99" points="139.01,390.71 123.68,385.85 140.9,331.2 156.23,336.06 			"/>
			<path class="st97" d="M138.61,392.14c-1.35,4.25-11.72,10.29-11.72,10.29s-5.01-10.92-3.66-15.17c1.35-4.25,5.88-6.6,10.13-5.25
				C137.61,383.36,139.96,387.89,138.61,392.14z"/>
			
				<ellipse transform="matrix(0.7468 -0.665 0.665 0.7468 -224.832 185.6689)" class="st99" cx="131.43" cy="388.11" rx="8.07" ry="8.07"/>
			<path class="st100" d="M156.45,335.84c-1.35,4.25-5.88,6.6-10.13,5.25c-4.25-1.35-6.6-5.88-5.26-10.13s5.88-6.6,10.13-5.25
				C155.44,327.06,157.79,331.59,156.45,335.84z"/>
		</g>
		<g>
			
				<rect x="95.83" y="321.14" transform="matrix(0.9455 -0.3255 0.3255 0.9455 -108.2421 52.8649)" class="st101" width="16.08" height="57.57"/>
			<path class="st97" d="M121.38,375.91c1.45,4.21-3.28,15.25-3.28,15.25s-10.52-5.78-11.97-10c-1.45-4.21,0.79-8.8,5-10.25
				C115.34,369.46,119.93,371.7,121.38,375.91z"/>
			<path class="st101" d="M120.83,374.33c1.45,4.21-0.79,8.8-5,10.25c-4.21,1.45-8.8-0.79-10.25-5c-1.45-4.21,0.79-8.8,5-10.25
				C114.79,367.88,119.38,370.12,120.83,374.33z"/>
			<path class="st100" d="M102.15,320.07c1.45,4.21-0.79,8.8-5,10.25c-4.21,1.45-8.8-0.79-10.25-5c-1.45-4.21,0.79-8.8,5-10.25
				C96.11,313.62,100.7,315.86,102.15,320.07z"/>
		</g>
		<g>
			<polygon class="st95" points="160.93,410.02 149.22,399 182.13,364.27 193.84,375.29 			"/>
			<path class="st97" d="M159.96,411.14c-3.05,3.25-15.02,4.2-15.02,4.2s0.22-12.01,3.27-15.26c3.05-3.25,8.16-3.41,11.4-0.35
				C162.85,402.78,163.01,407.89,159.96,411.14z"/>
			<path class="st95" d="M161.1,409.92c-3.05,3.25-8.16,3.41-11.4,0.35c-3.24-3.05-3.4-8.16-0.35-11.41
				c3.05-3.25,8.16-3.41,11.4-0.35C164,401.57,164.15,406.67,161.1,409.92z"/>
			<path class="st100" d="M193.88,375.33c-3.05,3.25-8.16,3.41-11.4,0.35c-3.24-3.05-3.4-8.16-0.35-11.41
				c3.05-3.25,8.16-3.41,11.4-0.35C196.78,366.97,196.93,372.08,193.88,375.33z"/>
		</g>
		<g>
			<polygon class="st36" points="104.68,390.08 91.77,399.66 66.36,365.64 79.27,356.05 			"/>
			<path class="st97" d="M105.61,391.24c2.66,3.58,1.48,15.53,1.48,15.53s-11.78-2.33-14.43-5.91c-2.66-3.58-1.91-8.63,1.67-11.29
				C97.9,386.91,102.96,387.66,105.61,391.24z"/>
			<path class="st36" d="M104.62,389.9c2.66,3.58,1.91,8.63-1.67,11.29s-8.63,1.91-11.29-1.67c-2.66-3.58-1.91-8.63,1.67-11.29
				C96.91,385.57,101.96,386.32,104.62,389.9z"/>
			<path class="st100" d="M79.83,356.72c2.66,3.58,1.91,8.63-1.67,11.29c-3.58,2.66-8.63,1.91-11.28-1.67
				c-2.66-3.58-1.91-8.63,1.67-11.29C72.12,352.39,77.18,353.14,79.83,356.72z"/>
		</g>
		<path class="st36" d="M75.25,360.12c0.77,1.04,0.55,2.5-0.48,3.27c-1.04,0.77-2.5,0.55-3.27-0.48c-0.77-1.04-0.55-2.5,0.48-3.27
			C73.01,358.87,74.48,359.09,75.25,360.12z"/>
		<path class="st101" d="M96.4,321.3c0.77,1.04,0.55,2.5-0.48,3.27c-1.04,0.77-2.5,0.55-3.27-0.48c-0.77-1.04-0.55-2.5,0.48-3.27
			C94.17,320.05,95.63,320.26,96.4,321.3z"/>
		<path class="st99" d="M150.63,332.01c0.77,1.04,0.55,2.5-0.48,3.27c-1.04,0.77-2.5,0.55-3.27-0.48c-0.77-1.04-0.55-2.5,0.48-3.27
			C148.4,330.76,149.86,330.97,150.63,332.01z"/>
		<path class="st102" d="M189.88,368.4c0.77,1.04,0.55,2.5-0.48,3.27c-1.04,0.77-2.5,0.55-3.27-0.48s-0.55-2.5,0.48-3.27
			C187.65,367.15,189.11,367.37,189.88,368.4z"/>
	</g>
</g>
</svg>
